<svg version="1.1" xmlns="http://www.w3.org/2000/svg"  viewBox="0 0 467 674" width="467" height="674"><path d="M0 0 C154.11 0 308.22 0 467 0 C467 222.42 467 444.84 467 674 C312.89 674 158.78 674 0 674 C0 451.58 0 229.16 0 0 Z " transform="translate(0,0)" style="fill: #FEFEFE;"></path><path d="M0 0 C1.66611905 -0.042721 3.33382885 -0.04063832 5 0 C6.68878898 1.68878898 6.12905374 3.83278592 6.140625 6.14453125 C6.08538095 22.78368449 6.08538095 22.78368449 12 38 C12.44472656 38.77601562 12.88945312 39.55203125 13.34765625 40.3515625 C17.09691949 46.42975527 22.52789051 54.76394526 29 58 C28.95359375 57.28457031 28.9071875 56.56914063 28.859375 55.83203125 C28.56603445 47.7337369 29.67507036 40.45051124 33 33 C36 31 36 31 38.6875 31.375 C39.8321875 31.684375 39.8321875 31.684375 41 32 C41.07489605 35.89459439 40.95948166 39.24524965 40 43 C38.3296531 58.68563184 42.03221664 69.40622363 49.1875 83.125 C57.23699377 98.99158746 56.46653975 116.22388938 52 133 C60.99133576 128.07658896 66.48788273 124.00953422 70 114 C70.37531446 111.67305036 70.71917202 109.34023315 71 107 C72 106 72 106 74.375 105.75 C77 106 77 106 78.6640625 107.19921875 C80.97885331 110.31944846 80.0904349 113.3263794 79.63671875 117.01953125 C77.37796966 127.59269417 70.98565866 135.00526804 62.375 141.0625 C56.64971658 145.11168781 56.64971658 145.11168781 53 151 C52.71506425 154.03431576 52.75717104 156.96463801 53 160 C54.05058594 160.35191406 55.10117187 160.70382813 56.18359375 161.06640625 C70.22289213 165.93516936 79.02984392 172.54194605 87.3125 184.9375 C95.1055131 196.21686106 107.10179319 203.36064942 118.65234375 210.32421875 C121.05988734 212.0427482 122.48764583 213.46802641 124 216 C124.73429302 222.29394013 123.67240561 226.8027944 120 232 C115.58458348 236.72930869 111.26383591 239.77477624 104.66015625 240.23046875 C103.47292969 240.21628906 102.28570312 240.20210937 101.0625 240.1875 C99.87785156 240.18105469 98.69320313 240.17460937 97.47265625 240.16796875 C94 240 94 240 91.17504883 239.49560547 C87.96504441 238.99454365 84.97295325 238.88627251 81.7265625 238.90234375 C80.57285156 238.90556641 79.41914063 238.90878906 78.23046875 238.91210938 C77.04066406 238.92048828 75.85085938 238.92886719 74.625 238.9375 C72.80548828 238.94426758 72.80548828 238.94426758 70.94921875 238.95117188 C67.96609493 238.96291646 64.98307321 238.9793416 62 239 C64.52671909 253.94278242 69.27984503 267.93775988 74.68554688 282.07104492 C89.01561972 319.71940167 94.00470091 359.1450717 78 397 C72.47211504 409.25892789 65.46078468 420.05389852 56.375 430 C53.72742009 432.61952792 53.72742009 432.61952792 54.21923828 434.92480469 C55.71479951 438.89987362 57.82597847 442.53813075 59.875 446.25 C60.36605225 447.14025879 60.85710449 448.03051758 61.36303711 448.94775391 C66.83675656 458.7119689 73.15955612 467.76983382 79.7734375 476.78515625 C91.88668662 493.34160728 91.88668662 493.34160728 91.3828125 501.85498047 C89.84386196 510.47820713 85.86107144 517.24352077 80.5 524 C71.75040156 535.45322894 64.14863665 547.4830771 56.96655273 559.97045898 C47.32297047 576.68612428 35.86411113 584.38462195 18 592 C17.22527344 592.34160156 16.45054687 592.68320312 15.65234375 593.03515625 C11.31847782 594.8304957 7.67597947 595.46759795 3 595 C1 593 1 593 0.6875 589.6875 C0.95060671 580.65965089 2.94707972 570.96171568 9 564 C12.78727293 560.59718026 16.65894751 560.02031886 21.5390625 559.0390625 C24.22280683 558.24130272 24.22280683 558.24130272 25.01953125 555.6171875 C25.34308594 554.75351562 25.66664063 553.88984375 26 553 C28.28515625 551.21875 28.28515625 551.21875 31.0625 549.5 C42.41355762 541.56757903 48.56392738 527.96048168 55 516 C55.40863281 515.28972656 55.81726563 514.57945312 56.23828125 513.84765625 C57.21315914 511.48295245 57.26555635 509.55124119 57.25 507 C57.25515625 506.154375 57.2603125 505.30875 57.265625 504.4375 C56.88904861 500.98185787 55.88653761 498.80703037 53.29858398 496.45117188 C52.62126221 495.96197266 51.94394043 495.47277344 51.24609375 494.96875 C50.48224365 494.4113916 49.71839355 493.8540332 48.93139648 493.27978516 C48.10841064 492.69245605 47.2854248 492.10512695 46.4375 491.5 C45.5906665 490.88560059 44.74383301 490.27120117 43.87133789 489.63818359 C37.56316506 485.07552455 31.19545607 480.59662212 24.8112793 476.14111328 C20.05537961 472.80433554 15.50197206 469.29484668 11.078125 465.5234375 C8.81652173 463.86549526 6.63545631 462.9307031 4 462 C2.05017656 468.91156928 0.22640461 475.85777814 -1.5625 482.8125 C-1.77221436 483.60495117 -1.98192871 484.39740234 -2.19799805 485.21386719 C-5.18807575 496.96641893 -6.2586361 508.65482 -6.46414185 520.75765991 C-6.77973651 538.84271115 -6.77973651 538.84271115 -8.0625 547.6875 C-12.54746989 581.20494673 -7.41947768 613.42459939 9.35571289 642.70996094 C12.25568125 647.90835466 14.52586609 652.90421267 14 659 C11.53415108 661.46584892 10.113044 661.25674933 6.7434082 661.27832031 C6.0443335 661.26897461 5.34525879 661.25962891 4.625 661.25 C3.90981201 661.24323242 3.19462402 661.23646484 2.45776367 661.22949219 C-12.58654706 660.94079181 -12.58654706 660.94079181 -18.734375 657.4453125 C-21.87127905 654.05961951 -22.06633895 651.10198805 -22.5625 646.625 C-23.2558311 640.7085746 -24.15525143 636.79748943 -28 632 C-28.86294678 631.3292041 -29.72589355 630.6584082 -30.61499023 629.96728516 C-34.08475977 625.65040738 -33.58028125 622.12304744 -33.3828125 616.75 C-33.36862274 615.74146973 -33.35443298 614.73293945 -33.33981323 613.69384766 C-33.29205521 610.46160949 -33.21140932 607.23141885 -33.125 604 C-32.6737268 585.26497648 -33.41329552 567.5839146 -38.125 549.375 C-39.97935505 541.88166173 -40.30300329 534.64083965 -40.4375 526.9375 C-40.83418411 507.24013 -44.05659096 483.88681809 -53 466 C-53.99515625 465.97421875 -54.9903125 465.9484375 -56.015625 465.921875 C-74.2200466 465.26327143 -90.82952013 461.20510772 -107.83837891 454.81201172 C-110.79856686 453.70001882 -113.77461172 452.63303023 -116.75 451.5625 C-118.16716293 451.0430185 -119.58407721 450.52285222 -121 450 C-121.08378906 450.96679688 -121.16757813 451.93359375 -121.25390625 452.9296875 C-124.23377989 473.49443075 -141.11496696 489.55591199 -155.33276367 503.22387695 C-163.91434969 511.186756 -163.91434969 511.186756 -167.36328125 521.96875 C-165.56175128 553.92099219 -140.29931647 587.87334084 -123.49365234 613.6953125 C-108.96192736 636.11758838 -108.96192736 636.11758838 -110 642 C-112.42791739 644.42791739 -113.0744268 644.26488899 -116.40234375 644.30078125 C-117.28809082 644.31052979 -118.17383789 644.32027832 -119.08642578 644.33032227 C-139.07017217 644.20540246 -139.07017217 644.20540246 -144 641 C-145.80699608 638.13212234 -146.35083806 635.29369867 -147 632 C-147.51245013 630.53114543 -148.05277169 629.07161455 -148.625 627.625 C-149.45700041 625.43154438 -150.25814609 623.22556173 -151 621 C-151.7425 620.71125 -152.485 620.4225 -153.25 620.125 C-156.81895355 618.66497355 -158.51575069 616.95402722 -161 614 C-161.7775051 611.42378906 -162.31192353 609.12692062 -162.75 606.5 C-167.52692241 583.17933017 -180.92275404 562.98628807 -194.3828125 543.7734375 C-209.52082378 522.10751057 -209.52082378 522.10751057 -208 511 C-206.60580957 507.27990506 -204.70082445 504.0034043 -202.625 500.625 C-201.61503931 498.91011751 -200.60715564 497.19400973 -199.6015625 495.4765625 C-198.92601318 494.364021 -198.92601318 494.364021 -198.23681641 493.22900391 C-195.75403635 488.75451083 -194.75149995 485.31275216 -194.875 480.1875 C-194.89304687 479.21167969 -194.91109375 478.23585938 -194.9296875 477.23046875 C-194.95289063 476.49441406 -194.97609375 475.75835937 -195 475 C-195.86625 475.928125 -196.7325 476.85625 -197.625 477.8125 C-203.26314745 483.45064745 -209.67306126 488.17140742 -216 493 C-217.45599609 494.11375 -217.45599609 494.11375 -218.94140625 495.25 C-223.40406562 498.62647663 -227.89946047 501.93778823 -232.46875 505.16796875 C-249.97999052 517.56996699 -260.84701154 528.62676489 -264.63671875 550.38085938 C-264.79785156 551.34830078 -264.95898438 552.31574219 -265.125 553.3125 C-265.29386719 554.26833984 -265.46273437 555.22417969 -265.63671875 556.20898438 C-267.62763193 567.86444853 -268.22916135 579.48353032 -268.29516602 591.2902832 C-268.30670836 592.72007119 -268.32719612 594.14981534 -268.35668945 595.5793457 C-268.64792758 609.79794878 -265.32571458 621.09741147 -258.875 633.75 C-252.2449871 646.75874252 -252.2449871 646.75874252 -252 653 C-254.83222541 655.83222541 -256.97197318 655.29015483 -260.84570312 655.32226562 C-261.74224609 655.31904297 -262.63878906 655.31582031 -263.5625 655.3125 C-264.43197266 655.32861328 -265.30144531 655.34472656 -266.19726562 655.36132812 C-273.53939531 655.36680324 -279.83456875 654.1102875 -286 650 C-286.61254883 648.03222656 -286.61254883 648.03222656 -286.95703125 645.640625 C-287.10076172 644.77179687 -287.24449219 643.90296875 -287.39257812 643.0078125 C-287.66993873 641.18626284 -287.93834655 639.36332481 -288.19726562 637.5390625 C-288.97602039 632.92774607 -289.52794692 629.99227648 -293.13671875 626.859375 C-295.90108584 624.45258563 -295.97175866 624.22759197 -296.46484375 620.25390625 C-296.35116144 618.83203405 -296.19327369 617.41325494 -296 616 C-295.90477051 615.21995605 -295.80954102 614.43991211 -295.71142578 613.63623047 C-295.2529752 610.21165175 -294.7014722 606.80391519 -294.15429688 603.39257812 C-292.24248313 590.90517032 -291.85381632 578.46196619 -292.01653099 565.8494873 C-292.0437937 563.62003876 -292.06126139 561.39069777 -292.07600403 559.16113281 C-292.11818037 552.83525914 -292.16682123 546.50960331 -292.24682617 540.18408203 C-292.29547018 536.28292549 -292.32436518 532.38204171 -292.34057045 528.48062134 C-292.35041233 527.0070627 -292.36753705 525.53353264 -292.39235497 524.06015015 C-292.62457706 509.98939258 -292.62457706 509.98939258 -288 504 C-287.13375 502.7625 -287.13375 502.7625 -286.25 501.5 C-284.33032412 499.3670268 -282.42666737 497.60356831 -280.25 495.75 C-272.60523278 489.15870164 -266.86412238 482.38220624 -263 473 C-262.6803125 472.26652344 -262.360625 471.53304688 -262.03125 470.77734375 C-256.69015456 456.36133152 -260.45778676 440.95377504 -264.28125 426.70410156 C-272.53916974 395.63592253 -272.53916974 395.63592253 -272 380 C-272.83917969 380.433125 -272.83917969 380.433125 -273.6953125 380.875 C-281.56189338 384.51740401 -289.91184992 385.68120484 -298.390625 383.33984375 C-300.45958973 382.39903499 -302.16762519 381.34347654 -304 380 C-304.68707031 379.50242187 -305.37414062 379.00484375 -306.08203125 378.4921875 C-311.00293568 374.56641959 -314.96106683 370.03837902 -317 364 C-317.07709287 361.66794058 -317.09054663 359.33157581 -317 357 C-315.64068359 357.05220703 -315.64068359 357.05220703 -314.25390625 357.10546875 C-293.33603581 357.57031032 -280.66808577 345.9638553 -266.0625 332.4375 C-252.38949124 320.08555489 -235.67504856 309.41397884 -218 304 C-217.37480469 303.80535156 -216.74960938 303.61070312 -216.10546875 303.41015625 C-181.98268733 293.27270857 -143.01376632 302.32326696 -109.15893555 309.58813477 C-96.25598455 312.33359472 -83.16746958 314.41070008 -69.9375 314.3125 C-69.10734375 314.30758545 -68.2771875 314.3026709 -67.421875 314.29760742 C-52.39311602 314.01711278 -35.54539156 311.02942445 -24.265625 300.359375 C-9.66275914 285.00764422 -10.5645074 264.30036253 -10.5 244.5625 C-10.39209887 211.59870561 -10.39209887 211.59870561 -4.3125 198.125 C-3.87550781 197.13757813 -3.43851562 196.15015625 -2.98828125 195.1328125 C-2.66214844 194.42898437 -2.33601563 193.72515625 -2 193 C-3.36125 193.1546875 -3.36125 193.1546875 -4.75 193.3125 C-14.24286225 193.23579 -22.26636473 187.69078565 -28.8125 181.3125 C-36.23522984 173.46561417 -41.15290895 164.948409 -41.3125 153.8125 C-41 150 -41 150 -40 149 C-23.07883622 146.79724495 -5.80775395 153.53246838 8 163 C8.75023437 163.51175781 9.50046875 164.02351562 10.2734375 164.55078125 C11.87010303 165.67097149 13.43965809 166.82974357 15 168 C15.94519741 165.48702007 16.18656864 164.41529087 15.06640625 161.921875 C4.48583647 146.64188332 -9.9178861 138.96207729 -26.09448242 130.66430664 C-32.81055204 127.19938405 -39.38741335 123.56368846 -45.875 119.6875 C-46.66406738 119.22045654 -47.45313477 118.75341309 -48.26611328 118.2722168 C-69.2763999 105.55263321 -87.74166818 87.37223588 -94 63 C-94.30550781 61.88431641 -94.30550781 61.88431641 -94.6171875 60.74609375 C-98.17736172 45.16423535 -96.7757694 28.14650952 -92 13 C-90 11 -90 11 -87.4375 10.8125 C-85 11 -85 11 -84 12 C-83.90105545 13.4346959 -83.87029265 14.87440397 -83.875 16.3125 C-83.87242187 17.09238281 -83.86984375 17.87226563 -83.8671875 18.67578125 C-84 21 -84 21 -84.49560547 22.79174805 C-85.58826918 27.5754573 -85.22814744 32.615952 -85.25 37.5 C-85.270625 38.62148438 -85.29125 39.74296875 -85.3125 40.8984375 C-85.38949659 57.56819934 -80.04792928 73.40106553 -69 86 C-67.88044922 87.42699219 -67.88044922 87.42699219 -66.73828125 88.8828125 C-63.8090028 92.40437365 -60.37778728 95.1052371 -56.75 97.875 C-56.11320312 98.37257813 -55.47640625 98.87015625 -54.8203125 99.3828125 C-52.18085929 101.86809233 -52.18085929 101.86809233 -49 103 C-49.32484375 101.92685547 -49.32484375 101.92685547 -49.65625 100.83203125 C-52.73090535 89.82875077 -53.78608312 78.69482771 -49 68 C-47.55859375 65.7421875 -47.55859375 65.7421875 -46 64 C-43.375 63.6875 -43.375 63.6875 -41 64 C-40 65 -40 65 -39.875 68.4375 C-40 72 -40 72 -41 74 C-41.89082981 86.36939095 -40.77415924 96.796416 -33 107 C-32.195625 108.2065625 -32.195625 108.2065625 -31.375 109.4375 C-24.64732982 116.69630203 -15.22965136 121.33072689 -6.625 126 C-5.55894531 126.59683594 -4.49289062 127.19367188 -3.39453125 127.80859375 C-2.36972656 128.36675781 -1.34492188 128.92492187 -0.2890625 129.5 C0.63181152 130.0053125 1.55268555 130.510625 2.50146484 131.03125 C5.2559898 132.0992542 6.32271412 132.17135894 9 131 C14.61901546 124.05016509 14.43673329 115.82816258 14.07910156 107.37548828 C13.99221539 105.25193871 13.98953054 103.12530054 14 101 C14.66 100.34 15.32 99.68 16 99 C19.09087496 99.15850641 20.5434947 99.5434947 22.75 101.75 C26.06415901 107.71548622 25.68167473 115.40080848 25 122 C23.88809898 125.47566264 22.54283855 128.77279946 21.1328125 132.13671875 C19.31490027 136.73164862 19.11863698 139.84170159 20.9921875 144.4296875 C22.84067614 148.29888422 24.89637737 151.95808547 27.3125 155.5 C29 158 29 158 29 160 C31.97 160 34.94 160 38 160 C37.98428955 159.28046143 37.9685791 158.56092285 37.95239258 157.81958008 C37.47212371 132.50312855 37.47212371 132.50312855 41 121 C43.75842546 106.95710676 42.17649941 94.81980292 34.2109375 82.921875 C28.41858866 75.26696875 21.5930575 68.51738839 14.6875 61.875 C2.64783584 49.89321884 -3.16224119 34.93846365 -3.25 18.1875 C-3.2809375 16.72860352 -3.2809375 16.72860352 -3.3125 15.24023438 C-3.34438341 9.35375952 -2.76610531 5.21920397 0 0 Z " transform="translate(332,6)" style="fill: #7E8566;"></path><path d="M0 0 C13.49067443 0.06485901 29.15962807 6.37741617 38.828125 15.77734375 C39.33859375 16.32519531 39.8490625 16.87304688 40.375 17.4375 C42.67981318 20.19245073 42.67981318 20.19245073 45.3671875 20.3359375 C48.49864332 19.93637489 50.13911216 18.94089037 52.75 17.1875 C62.74997585 10.95776541 71.93608555 9.46360295 83.62890625 11.69140625 C97.25523633 15.20455931 104.6879733 21.65922922 112.4375 33 C116.49131143 38.82625712 120.5590721 43.4707122 126.5546875 47.3359375 C136.70503872 53.93347333 136.70503872 53.93347333 137.69140625 57.5 C137.5 59.875 137.5 59.875 137.09375 62.08203125 C137.0628125 62.71496094 137.031875 63.34789062 137 64 C139.82857071 66.63844898 139.82857071 66.63844898 143 68 C141.25 71.875 141.25 71.875 139 73 C137.06449136 73.09720427 135.12544208 73.12977914 133.1875 73.125 C131.63095703 73.12886719 131.63095703 73.12886719 130.04296875 73.1328125 C127 73 127 73 124.69848633 72.5 C121.67369974 71.93954013 118.85718045 71.87042046 115.78125 71.8671875 C114.01201172 71.86525391 114.01201172 71.86525391 112.20703125 71.86328125 C110.37205078 71.86908203 110.37205078 71.86908203 108.5 71.875 C107.27667969 71.87113281 106.05335938 71.86726563 104.79296875 71.86328125 C103.61347656 71.86457031 102.43398438 71.86585938 101.21875 71.8671875 C100.14560547 71.86831543 99.07246094 71.86944336 97.96679688 71.87060547 C95.1916199 71.99164265 92.70701119 72.4101598 90 73 C79.08674284 73.76080993 70.03761195 73.13189024 61.125 66.25 C55.81994948 61.29445869 53.72036044 54.88144177 52 48 C50.02 48 48.04 48 46 48 C45.40945487 55.97235926 47.56896812 62.35345218 52 69 C52.40722656 71.13452148 52.40722656 71.13452148 52.640625 73.62109375 C52.78733643 75.00953491 52.78733643 75.00953491 52.93701172 76.42602539 C53.04029785 77.41981201 53.14358398 78.41359863 53.25 79.4375 C54.57892981 90.78870114 57.3003123 101.21365433 61 112 C61.21946289 112.65291016 61.43892578 113.30582031 61.66503906 113.97851562 C63.47639899 119.34739778 65.42053909 124.6487015 67.609375 129.875 C70.43947003 136.65299386 72.50646427 142.59696404 73 150 C73.66 150.99 74.32 151.98 75 153 C75.23340109 155.89677724 75.35217195 158.69432621 75.37109375 161.59375 C75.38012222 162.4544812 75.3891507 163.3152124 75.39845276 164.20202637 C75.41298038 166.03455124 75.42184821 167.86712828 75.42553711 169.69970703 C75.43722185 172.43488973 75.48619096 175.16765221 75.53710938 177.90234375 C75.64346672 189.63218204 74.01832559 199.87176703 70.56732178 211.06948853 C69.41576867 214.98805216 68.72396246 218.98529906 68 223 C67.01 223 66.02 223 65 223 C64.92652344 223.88751953 64.92652344 223.88751953 64.8515625 224.79296875 C64.43543133 229.19104472 63.95034405 232.96928897 62 237 C61.34 237 60.68 237 60 237 C60.33 237.99 60.66 238.98 61 240 C59.9609375 242.56640625 59.9609375 242.56640625 58.375 245.5625 C57.54355469 247.15191406 57.54355469 247.15191406 56.6953125 248.7734375 C55.85613281 250.37058594 55.85613281 250.37058594 55 252 C53.68482408 254.70855148 52.37768205 257.42064452 51.078125 260.13671875 C50 262 50 262 48 263 C47.05647599 265.03069719 47.05647599 265.03069719 46.2109375 267.484375 C44.18055644 272.76975179 41.56072133 277.42475271 38.625 282.25 C23.47993338 307.92477993 18.05998593 334.94958023 17.41503906 364.44848633 C17.20014917 372.92653075 16.52849242 381.21701816 15.4375 389.625 C11.85532753 417.80986504 12.53489498 452.69353832 27.68359375 477.7890625 C29 480 29 480 29 482 C25.37 482 21.74 482 18 482 C17.15364583 479.62369792 16.30729167 477.24739583 15.4609375 474.87109375 C14.26135831 472.05984839 14.26135831 472.05984839 12.52148438 470.73754883 C9.13502162 467.78838757 8.08767812 465.73384413 7.54638672 461.20336914 C7.42887384 457.2580066 7.52585122 453.32079677 7.66326904 449.37695312 C7.80923615 445.06101075 7.84583578 440.74368956 7.8984375 436.42578125 C7.91766769 435.1672081 7.91766769 435.1672081 7.93728638 433.88320923 C8.1568535 418.23549622 5.37977258 403.82139888 2.10522461 388.55810547 C0.36075729 380.01467484 -0.45085693 371.83568277 -0.5625 363.125 C-0.87024037 343.58561366 -5.60732432 325.90647245 -12.05273438 307.52563477 C-15.38129107 297.82086446 -15.87464246 291.03176949 -13 281.25 C-11.0660235 274.20778478 -10.00655339 267.32378084 -11 260 C-11.66 259.34 -12.32 258.68 -13 258 C-15.60280568 258.32041397 -15.60280568 258.32041397 -18 259 C-18.02578125 259.84820312 -18.0515625 260.69640625 -18.078125 261.5703125 C-18.4596629 269.46121001 -19.7215275 276.08805012 -22.078125 283.64453125 C-23.38395996 288.39754917 -23.7995514 293.08900937 -24 298 C-43.94548463 299.2891157 -63.11529308 292.43747621 -81.34375 285.05078125 C-81.99651413 284.78679535 -82.64927826 284.52280945 -83.32182312 284.25082397 C-86.59011061 282.92631022 -89.85188303 281.58854909 -93.10473633 280.2265625 C-103.6276431 275.90034731 -114.02962933 273.18331606 -125.3125 271.8125 C-126.58738281 271.65394531 -127.86226562 271.49539063 -129.17578125 271.33203125 C-130.57376953 271.16767578 -130.57376953 271.16767578 -132 271 C-131.13409573 267.37300477 -130.01512564 263.87805196 -128.796875 260.35546875 C-128.30877911 258.91271473 -127.85266667 257.45802381 -127.453125 255.98828125 C-124.81620617 247.20449081 -116.57754119 238.9963836 -109 234 C-107.66738178 233.66381913 -106.33396389 233.33080091 -105 233 C-103.84371094 232.51660156 -102.68742187 232.03320312 -101.49609375 231.53515625 C-96.16284141 229.50232436 -90.70643533 229.03030613 -85.0625 228.4375 C-77.92147908 227.65791256 -70.9715648 226.75452544 -64 225 C-63.32428955 224.8352417 -62.6485791 224.6704834 -61.95239258 224.50073242 C-51.02452734 221.75326793 -41.73521022 217.60757358 -32 212 C-30.45833333 211.22916667 -28.91666667 210.45833333 -27.375 209.6875 C-18.07229732 204.47447605 -9.9737216 196.35654228 -2.90234375 188.484375 C-1 187 -1 187 0.80859375 187.05078125 C3.93079905 188.40318034 6.97466512 189.88369307 10 191.4375 C10.61617187 191.75009766 11.23234375 192.06269531 11.8671875 192.38476562 C13.57950964 193.25378748 15.28982429 194.12676169 17 195 C18.33247809 195.66837442 19.66533467 196.336004 21 197 C21 197.66 21 198.32 21 199 C21.804375 199.37125 21.804375 199.37125 22.625 199.75 C25.5823982 201.30652537 28.29724051 203.03435673 31 205 C31 205.66 31 206.32 31 207 C31.99 207 32.98 207 34 207 C33.52949219 206.60167969 33.05898438 206.20335937 32.57421875 205.79296875 C31.95160156 205.26316406 31.32898438 204.73335937 30.6875 204.1875 C30.07261719 203.66542969 29.45773437 203.14335937 28.82421875 202.60546875 C27 201 27 201 25.39453125 199.36328125 C24.0242255 197.8848385 24.0242255 197.8848385 22 197 C22 196.34 22 195.68 22 195 C21.42024414 194.87310791 20.84048828 194.74621582 20.24316406 194.61547852 C18.01286525 194.00352996 16.16780336 193.19815816 14.109375 192.15234375 C13.40039062 191.79462891 12.69140625 191.43691406 11.9609375 191.06835938 C11.23132813 190.69517578 10.50171875 190.32199219 9.75 189.9375 C9.00492188 189.56044922 8.25984375 189.18339844 7.4921875 188.79492188 C5.65962469 187.86689327 3.82956324 186.93392821 2 186 C3.17142082 182.83341953 4.21914921 180.71569833 6.3125 178 C12.12390597 170.0753555 14.48884341 159.78129942 17.30078125 150.46899414 C19.95503544 141.69115434 19.95503544 141.69115434 22.40234375 137.73046875 C33.04692789 120.097837 30.42865833 95.33013584 30.53442383 75.484375 C30.64215637 62.8389057 31.46680715 51.84321136 37.6875 40.5625 C40.70144041 35.09353134 40.70144041 35.09353134 41 29 C38.12397394 27.56198697 35.32260542 27.61656677 32.125 27.3125 C21.26093478 26.00818548 12.63638873 22.00097781 5.625 13.3828125 C2.96769502 9.48628356 0 4.84816339 0 0 Z " transform="translate(300,164)" style="fill: #C0E1CD;"></path><path d="M0 0 C1.59928856 3.19857711 -0.06761228 6.08236192 -1.125 9.3125 C-1.35727295 10.03018555 -1.5895459 10.74787109 -1.82885742 11.48730469 C-2.54120465 13.66216799 -3.26874422 15.831431 -4 18 C-4.38542969 19.16402344 -4.77085937 20.32804687 -5.16796875 21.52734375 C-8.0367203 29.60488652 -11.99161589 36.10259756 -17 43 C-16.46375 43.10441406 -15.9275 43.20882812 -15.375 43.31640625 C-12.37174394 44.18083028 -9.78175791 45.51532627 -7 46.9375 C-5.96875 47.46214844 -4.9375 47.98679687 -3.875 48.52734375 C-2.92625 49.01332031 -1.9775 49.49929688 -1 50 C0.33245557 50.66841932 1.66538585 51.33590113 3 52 C3 52.66 3 53.32 3 54 C4.65 54.66 6.3 55.32 8 56 C8 56.66 8 57.32 8 58 C8.639375 58.268125 9.27875 58.53625 9.9375 58.8125 C12 60 12 60 13 63 C13.99 63.33 14.98 63.66 16 64 C15.67 64.66 15.34 65.32 15 66 C14.01 65.34 13.02 64.68 12 64 C12 63.34 12 62.68 12 62 C11.46375 61.7525 10.9275 61.505 10.375 61.25 C7.4176018 59.69347463 4.70275949 57.96564327 2 56 C2 55.34 2 54.68 2 54 C1.41283203 53.87383301 0.82566406 53.74766602 0.22070312 53.61767578 C-1.95406077 53.01277773 -3.58421481 52.2421771 -5.53125 51.1171875 C-6.17707031 50.75496094 -6.82289063 50.39273438 -7.48828125 50.01953125 C-8.83279793 49.25459264 -10.17395248 48.48371497 -11.51171875 47.70703125 C-15.06457366 45.58269253 -15.06457366 45.58269253 -19.05639648 45.24633789 C-22.25467353 46.48651893 -24.27013413 49.10187344 -26.5625 51.5625 C-34.6592999 59.94287445 -43.83651403 66.3295185 -54 72 C-54.86625 72.49242187 -55.7325 72.98484375 -56.625 73.4921875 C-62.81854843 76.81261763 -69.13457863 79.18913822 -75.8125 81.3125 C-76.61292725 81.56708984 -77.41335449 81.82167969 -78.23803711 82.08398438 C-84.9248836 84.12883192 -91.57372881 84.97801195 -98.5090332 85.69702148 C-112.41738189 86.69368296 -112.41738189 86.69368296 -125 92 C-125.62519531 92.13148438 -126.25039062 92.26296875 -126.89453125 92.3984375 C-131.06512966 93.59003705 -133.92887119 97.06664145 -137 100 C-137.95712891 100.84884766 -137.95712891 100.84884766 -138.93359375 101.71484375 C-144.32974962 107.01816253 -145.61805489 112.73753209 -147.17578125 119.90234375 C-147.44777344 120.92457031 -147.71976562 121.94679688 -148 123 C-148.99 123.495 -148.99 123.495 -150 124 C-149.68917128 122.24970238 -149.37626821 120.49977306 -149.0625 118.75 C-148.88847656 117.77546875 -148.71445313 116.8009375 -148.53515625 115.796875 C-148.22289202 114.16489553 -147.87500524 112.5376068 -147.44140625 110.93359375 C-146.9273027 108.68154722 -146.86736995 106.62059076 -146.875 104.3125 C-146.87242187 103.52488281 -146.86984375 102.73726563 -146.8671875 101.92578125 C-146.78872222 99.99235086 -146.78872222 99.99235086 -148 99 C-149.66617115 98.95936168 -151.33388095 98.957279 -153 99 C-153.11972168 99.54454834 -153.23944336 100.08909668 -153.36279297 100.65014648 C-153.90418484 103.1010846 -154.45115983 105.55071921 -155 108 C-155.24991699 109.12172607 -155.24991699 109.12172607 -155.50488281 110.26611328 C-158.204373 122.10979889 -162.02053525 132.43136376 -168 143 C-168.50917969 143.94875 -169.01835937 144.8975 -169.54296875 145.875 C-181.29928682 166.18411502 -202.02195967 180.77716081 -220.63378906 194.27734375 C-224.36017951 196.99024212 -228.05829185 199.74017087 -231.75 202.5 C-232.38083496 202.96792969 -233.01166992 203.43585938 -233.66162109 203.91796875 C-253.07207046 218.43550816 -258.24412986 235.3534037 -261.74511719 258.60009766 C-264.87229748 280.453687 -268.28578276 306.94208277 -257.76953125 327.265625 C-257 329 -257 329 -257 332 C-260.21451269 333.60725635 -263.43612536 333.05748185 -267 333 C-267.25394531 332.32453125 -267.50789063 331.6490625 -267.76953125 330.953125 C-268.11371094 330.06109375 -268.45789063 329.1690625 -268.8125 328.25 C-269.31716797 326.92742187 -269.31716797 326.92742187 -269.83203125 325.578125 C-270.86283255 322.9738685 -270.86283255 322.9738685 -272.65234375 321.10546875 C-274.63758386 318.00389072 -274.10457538 315.67377319 -273.75 312.0625 C-273.64171875 310.85722656 -273.5334375 309.65195312 -273.421875 308.41015625 C-273.18003261 306.45526361 -272.89912975 304.50242472 -272.50776672 302.57189941 C-269.73987697 288.55220552 -269.84320335 273.95119647 -270.05078125 259.71875 C-270.06900748 258.30159515 -270.08722644 256.8844402 -270.10543823 255.46728516 C-270.18533166 249.66297433 -270.27706015 243.85932808 -270.41821289 238.05615234 C-270.5046975 234.442882 -270.55644123 230.83048621 -270.58626366 227.21632385 C-270.61256669 225.21073502 -270.67664786 223.20575348 -270.74177551 221.2010498 C-270.77633772 215.14740543 -270.71978875 211.01523255 -266.67651367 206.29492188 C-264.84538269 204.53308105 -264.84538269 204.53308105 -263 203 C-262.08937553 202.23145691 -262.08937553 202.23145691 -261.16035461 201.4473877 C-260.63306259 201.01099976 -260.10577057 200.57461182 -259.5625 200.125 C-246.48098124 189.21395745 -239.26923606 172.86072864 -237.6171875 156.12109375 C-237.23032253 143.13532627 -240.58055594 131.11690776 -244 118.6875 C-251.19480407 91.9068404 -253.49420445 66.63709221 -241 41 C-230.67951039 23.79918399 -213.88903537 14.54029656 -194.90942383 9.43798828 C-187.07425129 7.60757702 -179.18921771 7.60289026 -171.1875 7.625 C-170.44489929 7.62554382 -169.70229858 7.62608765 -168.93719482 7.62664795 C-143.21398923 7.71244917 -118.52590352 12.87784224 -93.53271484 18.56103516 C-81.87458152 21.14629001 -70.20454031 21.33313615 -58.3125 21.4375 C-57.52698761 21.44980652 -56.74147522 21.46211304 -55.93215942 21.47479248 C-42.0554967 21.65642372 -28.76188629 20.10763567 -16.3125 13.5 C-15.21550781 12.9328125 -14.11851562 12.365625 -12.98828125 11.78125 C-8.80267599 9.28630098 -5.22774723 6.57202509 -2.1875 2.75 C-1.1046875 1.38875 -1.1046875 1.38875 0 0 Z " transform="translate(319,307)" style="fill: #A0BFB0;"></path><path d="M0 0 C13.49067443 0.06485901 29.15962807 6.37741617 38.828125 15.77734375 C39.33859375 16.32519531 39.8490625 16.87304688 40.375 17.4375 C42.67981318 20.19245073 42.67981318 20.19245073 45.3671875 20.3359375 C48.49864332 19.93637489 50.13911216 18.94089037 52.75 17.1875 C62.74997585 10.95776541 71.93608555 9.46360295 83.62890625 11.69140625 C97.25523633 15.20455931 104.6879733 21.65922922 112.4375 33 C116.49131143 38.82625712 120.5590721 43.4707122 126.5546875 47.3359375 C136.70503872 53.93347333 136.70503872 53.93347333 137.69140625 57.5 C137.5 59.875 137.5 59.875 137.09375 62.08203125 C137.0628125 62.71496094 137.031875 63.34789062 137 64 C139.82857071 66.63844898 139.82857071 66.63844898 143 68 C141.25 71.875 141.25 71.875 139 73 C137.06449136 73.09720427 135.12544208 73.12977914 133.1875 73.125 C131.63095703 73.12886719 131.63095703 73.12886719 130.04296875 73.1328125 C127 73 127 73 124.69848633 72.5 C121.67369974 71.93954013 118.85718045 71.87042046 115.78125 71.8671875 C114.01201172 71.86525391 114.01201172 71.86525391 112.20703125 71.86328125 C110.37205078 71.86908203 110.37205078 71.86908203 108.5 71.875 C107.27667969 71.87113281 106.05335938 71.86726563 104.79296875 71.86328125 C103.61347656 71.86457031 102.43398438 71.86585938 101.21875 71.8671875 C100.14560547 71.86831543 99.07246094 71.86944336 97.96679688 71.87060547 C95.1916199 71.99164265 92.70701119 72.4101598 90 73 C79.08674284 73.76080993 70.03761195 73.13189024 61.125 66.25 C55.81994948 61.29445869 53.72036044 54.88144177 52 48 C50.02 48 48.04 48 46 48 C45.40945487 55.97235926 47.56896812 62.35345218 52 69 C52.40722656 71.13452148 52.40722656 71.13452148 52.640625 73.62109375 C52.78733643 75.00953491 52.78733643 75.00953491 52.93701172 76.42602539 C53.09194092 77.91670532 53.09194092 77.91670532 53.25 79.4375 C54.57892981 90.78870114 57.3003123 101.21365433 61 112 C61.21946289 112.65291016 61.43892578 113.30582031 61.66503906 113.97851562 C63.47639899 119.34739778 65.42053909 124.6487015 67.609375 129.875 C70.43947003 136.65299386 72.50646427 142.59696404 73 150 C73.66 150.99 74.32 151.98 75 153 C75.23340109 155.89677724 75.35217195 158.69432621 75.37109375 161.59375 C75.38012222 162.4544812 75.3891507 163.3152124 75.39845276 164.20202637 C75.41298038 166.03455124 75.42184821 167.86712828 75.42553711 169.69970703 C75.43722185 172.43488973 75.48619096 175.16765221 75.53710938 177.90234375 C75.64346672 189.63218204 74.01832559 199.87176703 70.56732178 211.06948853 C69.41576867 214.98805216 68.72396246 218.98529906 68 223 C67.01 223 66.02 223 65 223 C64.92652344 223.88751953 64.92652344 223.88751953 64.8515625 224.79296875 C64.43543133 229.19104472 63.95034405 232.96928897 62 237 C61.34 237 60.68 237 60 237 C60.33 237.99 60.66 238.98 61 240 C59.9609375 242.56640625 59.9609375 242.56640625 58.375 245.5625 C55.87000375 250.33474981 53.51078759 255.13593357 51.2734375 260.0390625 C49.78549606 262.33030975 48.51143286 263.01450103 46 264 C44.63551724 261.27103449 44.92218522 259.15290961 44.97265625 256.1015625 C44.98490234 254.89886719 44.99714844 253.69617188 45.00976562 252.45703125 C45.04438521 249.94134118 45.08330794 247.42570592 45.12695312 244.91015625 C45.27803957 228.14844869 42.23358739 216.15613603 30.63671875 203.62109375 C27.98585206 200.99553366 25.34525069 198.67262534 22 197 C22 196.34 22 195.68 22 195 C21.42024414 194.87310791 20.84048828 194.74621582 20.24316406 194.61547852 C18.01286525 194.00352996 16.16780336 193.19815816 14.109375 192.15234375 C13.40039062 191.79462891 12.69140625 191.43691406 11.9609375 191.06835938 C11.23132813 190.69517578 10.50171875 190.32199219 9.75 189.9375 C9.00492187 189.56044922 8.25984375 189.18339844 7.4921875 188.79492188 C5.65962469 187.86689327 3.82956324 186.93392821 2 186 C3.17142082 182.83341953 4.21914921 180.71569833 6.3125 178 C12.12390597 170.0753555 14.48884341 159.78129942 17.30078125 150.46899414 C19.95503544 141.69115434 19.95503544 141.69115434 22.40234375 137.73046875 C33.04692789 120.097837 30.42865833 95.33013584 30.53442383 75.484375 C30.64215637 62.8389057 31.46680715 51.84321136 37.6875 40.5625 C40.70144041 35.09353134 40.70144041 35.09353134 41 29 C38.12397394 27.56198697 35.32260542 27.61656677 32.125 27.3125 C21.26093478 26.00818548 12.63638873 22.00097781 5.625 13.3828125 C2.96769502 9.48628356 0 4.84816339 0 0 Z " transform="translate(300,164)" style="fill: #EEE1BF;"></path><path d="M0 0 C2.79412595 0.53041035 5.41007676 1.13122456 8.125 2 C11.32012411 2.94983045 14.42297725 3.28631014 17.7421875 3.5625 C18.72815918 3.64628906 19.71413086 3.73007813 20.72998047 3.81640625 C21.85364014 3.90728516 21.85364014 3.90728516 23 4 C23.09385986 4.53963379 23.18771973 5.07926758 23.28442383 5.63525391 C25.56019241 18.24335368 28.89776729 30.16549113 33.4375 42.125 C37.91263943 53.94726386 41.99967712 65.70866914 45 78 C45.20737793 78.83192871 45.41475586 79.66385742 45.62841797 80.52099609 C50.23555626 99.56504838 51.42230287 120.00007583 46 139 C45.6596875 140.21300781 45.319375 141.42601562 44.96875 142.67578125 C39.06589225 161.88001101 29.09064598 178.71337842 15 193 C14.20722656 193.80566406 13.41445313 194.61132812 12.59765625 195.44140625 C3.7518963 203.90448773 -7.1004928 210.86855074 -19 214 C-17.67556436 209.40543719 -15.82977992 205.99087084 -13.125 202.0625 C11.53342975 164.84734135 27.9955855 115.98605999 19.86791992 71.05200195 C19.06818009 67.31711 18.09734769 63.65782564 17 60 C16.77505859 59.24332031 16.55011719 58.48664063 16.31835938 57.70703125 C13.89337833 49.73064731 11.03815063 41.96024251 7.875 34.25 C3.26898584 22.91025911 0.40756928 12.26783528 0 0 Z " transform="translate(362,242)" style="fill: #FDFDFA;"></path><path d="M0 0 C12.44776354 -2.13032195 26.5141283 2.53438964 38 7 C38.495 7.495 38.495 7.495 39 8 C37.56759589 27.65157918 21.97211673 43.55642201 8.50830078 56.38256836 C1.90481214 62.75489889 -6.55974991 71.01777817 -7.265625 80.609375 C-7.27091315 81.98958303 -7.26539181 83.36986766 -7.25 84.75 C-7.25773437 85.42804688 -7.26546875 86.10609375 -7.2734375 86.8046875 C-7.17648048 112.30438261 11.65399763 140.32582905 25 161 C27.32533737 164.70038207 29.63149101 168.41255323 31.9375 172.125 C32.51830322 173.0516748 33.09910645 173.97834961 33.69750977 174.93310547 C34.23947998 175.80338379 34.7814502 176.67366211 35.33984375 177.5703125 C35.82831787 178.35164551 36.31679199 179.13297852 36.82006836 179.93798828 C38 182 38 182 39 185 C35.37 185 31.74 185 28 185 C27.525625 183.96875 27.05125 182.9375 26.5625 181.875 C24.6886321 178.46308282 22.95071768 177.33046179 19.5 175.625 C16.11354261 173.53045411 15.13924873 172.41163054 13.84375 168.58203125 C13.3789813 166.46592724 12.98209562 164.34214947 12.58227539 162.21289062 C8.33009966 140.46886221 -4.78259784 120.67494959 -17.34375 102.81640625 C-20.03552206 98.98102575 -22.59782821 95.07031537 -25.125 91.125 C-25.50350098 90.53549561 -25.88200195 89.94599121 -26.27197266 89.33862305 C-29.91170231 83.63321544 -31.33253105 79.81350783 -30 73 C-28.75251112 70.23868808 -27.24176441 67.66098806 -25.6875 65.0625 C-20.27668903 55.95237535 -18.00398886 48.82276104 -17.80834961 38.15527344 C-17.5236807 24.28629937 -17.5236807 24.28629937 -13.9375 20.5625 C-13.31359375 20.03398437 -12.6896875 19.50546875 -12.046875 18.9609375 C-9.21332213 16.24635059 -7.55966253 13.10936589 -5.6875 9.6875 C-5.18174438 8.76916382 -5.18174438 8.76916382 -4.66577148 7.83227539 C-4.34680908 7.2521167 -4.02784668 6.67195801 -3.69921875 6.07421875 C-2 3 -2 3 0 0 Z " transform="translate(164,444)" style="fill: #FAFCFC;"></path><path d="M0 0 C1.66611905 -0.042721 3.33382885 -0.04063832 5 0 C6.68878898 1.68878898 6.12905374 3.83278592 6.140625 6.14453125 C6.08538095 22.78368449 6.08538095 22.78368449 12 38 C12.44472656 38.77601562 12.88945312 39.55203125 13.34765625 40.3515625 C17.09691949 46.42975527 22.52789051 54.76394526 29 58 C28.95359375 57.28457031 28.9071875 56.56914063 28.859375 55.83203125 C28.56603445 47.7337369 29.67507036 40.45051124 33 33 C36 31 36 31 38.6875 31.375 C39.8321875 31.684375 39.8321875 31.684375 41 32 C41.07489605 35.89459439 40.95948166 39.24524965 40 43 C38.3296531 58.68563184 42.03221664 69.40622363 49.1875 83.125 C57.23699377 98.99158746 56.46653975 116.22388938 52 133 C60.99133576 128.07658896 66.48788273 124.00953422 70 114 C70.37531446 111.67305036 70.71917202 109.34023315 71 107 C72 106 72 106 74.375 105.75 C77 106 77 106 78.6640625 107.19921875 C80.97885331 110.31944846 80.0904349 113.3263794 79.63671875 117.01953125 C77.042411 129.16343807 69.25962465 136.27035286 59.49609375 143.06640625 C56.43511364 145.43758803 54.90731502 147.6829304 53 151 C52.34 151 51.68 151 51 151 C51 153.64 51 156.28 51 159 C47.37 159 43.74 159 40 159 C36.8629296 146.45171841 37.31342157 133.31354624 41 121 C43.75842546 106.95710676 42.17649941 94.81980292 34.2109375 82.921875 C28.41858866 75.26696875 21.5930575 68.51738839 14.6875 61.875 C2.64783584 49.89321884 -3.16224119 34.93846365 -3.25 18.1875 C-3.270625 17.21490234 -3.29125 16.24230469 -3.3125 15.24023438 C-3.34438341 9.35375952 -2.76610531 5.21920397 0 0 Z " transform="translate(332,6)" style="fill: #99946B;"></path><path d="M0 0 C3.48083158 1.16027719 3.6589515 1.64873315 5.34765625 4.7265625 C5.78295654 5.50386719 6.21825684 6.28117187 6.66674805 7.08203125 C7.12734619 7.92121094 7.58794434 8.76039063 8.0625 9.625 C14.18921514 20.49514325 20.89468421 30.7980778 28.25 40.875 C28.88421875 41.74640625 29.5184375 42.6178125 30.171875 43.515625 C31.37082404 45.144966 32.58910306 46.76029541 33.828125 48.359375 C37.12813122 52.83134604 38.90404826 56.18485336 38.4375 61.83203125 C36.99356384 68.98725063 32.43191957 74.16707576 28.04614258 79.75585938 C21.47441082 88.15971747 15.7141019 97.01005704 10.3515625 106.23046875 C9.70533936 107.33487305 9.05911621 108.43927734 8.39331055 109.57714844 C7.11945505 111.76580741 5.85972223 113.96276701 4.61645508 116.16894531 C-0.36580998 124.73534622 -6.26096346 131.77145196 -15.4375 136 C-16.67306641 136.5878125 -16.67306641 136.5878125 -17.93359375 137.1875 C-20 138 -20 138 -22 138 C-22.48186107 134.55335482 -22.69677796 131.42582499 -22 128 C-20.14268702 126.22670832 -18.31771332 125.28361907 -16.0234375 124.14453125 C-13.04358619 122.4590169 -11.81541883 119.84415616 -10 117 C-8 115.66666667 -6 114.33333333 -4 113 C1.19393799 107.79671058 5.26322189 101.91198532 9.125 95.6875 C9.64562012 94.85589355 10.16624023 94.02428711 10.70263672 93.16748047 C14.31581535 87.31274009 17.4990107 81.42145902 20 75 C20.3609375 74.19046875 20.721875 73.3809375 21.09375 72.546875 C23.13357335 66.814268 22.7475894 60.91772932 20.5625 55.3125 C15.20086952 47.51878972 6.87520137 42.42239007 -0.83276367 37.21899414 C-9.98378025 31.02938838 -18.71825251 24.31875359 -27 17 C-24.45537604 14.45537604 -21.82150465 13.40990909 -18.5625 11.875 C-12.56443957 8.99903679 -7.41021975 5.58752292 -2.20703125 1.40625 C-1.47871094 0.9421875 -0.75039063 0.478125 0 0 Z " transform="translate(376,447)" style="fill: #FCFCF9;"></path><path d="M0 0 C0.33 0 0.66 0 1 0 C-0.01586574 19.97869279 -12.5860984 33.04938222 -26.19140625 46.19921875 C-29.98631313 49.98356956 -30.12737092 51.59075476 -30.13671875 56.87695312 C-30.13285156 57.63943359 -30.12898438 58.40191406 -30.125 59.1875 C-30.12886719 59.93064453 -30.13273437 60.67378906 -30.13671875 61.43945312 C-30.13542969 62.17486328 -30.13414063 62.91027344 -30.1328125 63.66796875 C-30.13168457 64.33078857 -30.13055664 64.9936084 -30.12939453 65.67651367 C-30.03177923 68.14620597 -30.03177923 68.14620597 -29.49780273 71.14013672 C-28.89426688 75.81983352 -28.87545454 80.37788319 -28.90234375 85.08984375 C-28.9037587 86.03436905 -28.90517365 86.97889435 -28.90663147 87.95204163 C-28.9121964 90.94722763 -28.92474233 93.94233687 -28.9375 96.9375 C-28.94251954 98.97721246 -28.94708165 101.01692609 -28.95117188 103.05664062 C-28.96215433 108.03778966 -28.9793946 113.01888185 -29 118 C-28.94465088 117.40461426 -28.88930176 116.80922852 -28.83227539 116.19580078 C-28.57981135 113.50512785 -28.32123184 110.81507714 -28.0625 108.125 C-27.93198242 106.71927734 -27.93198242 106.71927734 -27.79882812 105.28515625 C-27.71181641 104.38925781 -27.62480469 103.49335937 -27.53515625 102.5703125 C-27.456604 101.74289551 -27.37805176 100.91547852 -27.29711914 100.06298828 C-27 98 -27 98 -26 96 C-25.6713492 93.89412289 -25.34681565 91.78747077 -25.04907227 89.67700195 C-23.22789416 76.82300146 -20.2966683 64.94500245 -13 54 C-12.34 54 -11.68 54 -11 54 C-10.7525 53.4225 -10.505 52.845 -10.25 52.25 C-8.81700012 49.67060021 -7.21575324 47.93878408 -5 46 C-4.34 46 -3.68 46 -3 46 C-3 45.34 -3 44.68 -3 44 C-2.34 44 -1.68 44 -1 44 C-1 43.34 -1 42.68 -1 42 C0.8984375 40.4921875 0.8984375 40.4921875 3.375 38.875 C4.18710938 38.33617187 4.99921875 37.79734375 5.8359375 37.2421875 C8 36 8 36 10 36 C10 35.34 10 34.68 10 34 C11.84682455 32.63918191 13.75470915 31.36068052 15.6875 30.125 C18.84216693 28.09892575 21.86233836 26.11222627 24.76953125 23.7421875 C27 22 27 22 29 22 C29 21.34 29 20.68 29 20 C30.485 20.495 30.485 20.495 32 21 C26.48024237 25.55316413 20.84583563 29.87834407 15 34 C9.89614335 37.6027629 4.92941895 41.31436227 0.1015625 45.28515625 C-1.59271241 46.66765938 -3.35037601 47.97227073 -5.125 49.25 C-23.71755868 67.03418656 -25.59817222 98.91116546 -26.203125 123.234375 C-26.50529901 144.89449298 -26.50529901 144.89449298 -19.76953125 165.265625 C-19 167 -19 167 -19 170 C-22.21451269 171.60725635 -25.43612536 171.05748185 -29 171 C-29.25394531 170.32453125 -29.50789063 169.6490625 -29.76953125 168.953125 C-30.11371094 168.06109375 -30.45789062 167.1690625 -30.8125 166.25 C-31.31716797 164.92742187 -31.31716797 164.92742187 -31.83203125 163.578125 C-32.86283255 160.9738685 -32.86283255 160.9738685 -34.65234375 159.10546875 C-36.63758386 156.00389072 -36.10457538 153.67377319 -35.75 150.0625 C-35.64171875 148.85722656 -35.5334375 147.65195312 -35.421875 146.41015625 C-35.18003261 144.45526361 -34.89912975 142.50242472 -34.50776672 140.57189941 C-31.73987697 126.55220552 -31.84320335 111.95119647 -32.05078125 97.71875 C-32.06900748 96.30159515 -32.08722644 94.8844402 -32.10543823 93.46728516 C-32.18533166 87.66297433 -32.27706015 81.85932808 -32.41821289 76.05615234 C-32.5046975 72.442882 -32.55644123 68.83048621 -32.58626366 65.21632385 C-32.61256669 63.21073502 -32.67664786 61.20575348 -32.74177551 59.2010498 C-32.77633772 53.14740543 -32.71978875 49.01523255 -28.67651367 44.29492188 C-26.84538269 42.53308105 -26.84538269 42.53308105 -25 41 C-24.39291702 40.48763794 -23.78583405 39.97527588 -23.16035461 39.4473877 C-22.63306259 39.01099976 -22.10577057 38.57461182 -21.5625 38.125 C-9.65921006 28.19669539 -4.00378094 14.60202461 0 0 Z " transform="translate(81,469)" style="fill: #C4B47E;"></path><path d="M0 0 C2.4179765 2.4179765 2.30429605 3.79034861 2.38037109 7.10253906 C2.32847873 27.24621097 -5.11096092 43.61815649 -19 58 C-21.06118052 59.93277911 -23.13676028 61.77236997 -25.34375 63.53515625 C-28.20457088 66.0653634 -29.8632245 67.90235875 -30.3473053 71.78717041 C-30.33461105 72.86061707 -30.32191681 73.93406372 -30.30883789 75.04003906 C-30.30215591 76.26362122 -30.29547394 77.48720337 -30.28858948 78.74786377 C-30.27248721 79.72758022 -30.27248721 79.72758022 -30.25605965 80.72708893 C-30.22207977 82.80080642 -30.20655514 84.87397853 -30.19541931 86.94793701 C-30.17260945 90.63457135 -30.1336605 94.32082975 -30.0894165 98.00726318 C-30.01112389 104.53076016 -29.94735543 111.05425796 -29.91015625 117.578125 C-29.90599449 118.28298161 -29.90183273 118.98783821 -29.89754486 119.71405411 C-29.82516409 136.02742031 -30.70621285 152.34027672 -33.6328125 168.4140625 C-34.34035396 173.3969609 -34.61564488 176.84841489 -31.5625 181 C-29.29883129 184.32516308 -28.30624876 186.91668322 -28 191 C-24.7 190.67 -21.4 190.34 -18 190 C-18.32613281 189.30777344 -18.65226562 188.61554688 -18.98828125 187.90234375 C-31.13332927 160.71033359 -26.4573008 129.39509965 -21.0625 101 C-20.9171582 100.2177002 -20.77181641 99.43540039 -20.62207031 98.62939453 C-16.00969949 76.11848956 0.15152984 64.108402 17.85253906 51.53515625 C24.75473266 46.60098238 31.56858308 41.53816457 38 36 C38.66 36.33 39.32 36.66 40 37 C31.65459162 44.89308272 22.40116256 51.51500245 13.01171875 58.09375 C2.3498102 65.62343361 -6.90347635 73.24555152 -13 85 C-13.66 85.99 -14.32 86.98 -15 88 C-15.73699213 90.45855967 -16.39820643 92.88377307 -17 95.375 C-17.17515137 96.09107422 -17.35030273 96.80714844 -17.53076172 97.54492188 C-19.06681991 103.986918 -20.1205239 110.43743958 -21 117 C-21.16749756 118.16724609 -21.33499512 119.33449219 -21.50756836 120.53710938 C-22.75388085 129.6646361 -23.40140475 138.64222514 -23.42553711 147.85449219 C-23.43750273 150.0004893 -23.48701739 152.14365958 -23.53710938 154.2890625 C-23.6404715 163.29864453 -22.29109901 170.9225904 -19.27368164 179.4140625 C-18.02777093 182.92181342 -16.98847415 186.41372012 -16 190 C-18 192 -18 192 -20.6015625 192.1953125 C-21.59929688 192.17210937 -22.59703125 192.14890625 -23.625 192.125 C-24.62789062 192.10695313 -25.63078125 192.08890625 -26.6640625 192.0703125 C-27.43492188 192.04710937 -28.20578125 192.02390625 -29 192 C-29.48919922 190.87851562 -29.48919922 190.87851562 -29.98828125 189.734375 C-30.42527344 188.74953125 -30.86226562 187.7646875 -31.3125 186.75 C-31.74175781 185.77546875 -32.17101563 184.8009375 -32.61328125 183.796875 C-33.83869656 181.01006384 -33.83869656 181.01006384 -35.6875 179.125 C-37.66818512 175.91817648 -37.07163638 172.84660435 -36.6875 169.25 C-36.62626953 168.55261719 -36.56503906 167.85523438 -36.50195312 167.13671875 C-36.34937092 165.42310319 -36.17666411 163.7113005 -36 162 C-35.34 162 -34.68 162 -34 162 C-34.01160156 160.74703125 -34.02320313 159.4940625 -34.03515625 158.203125 C-34.04453716 156.55208483 -34.05363704 154.90104304 -34.0625 153.25 C-34.07087891 152.425 -34.07925781 151.6 -34.08789062 150.75 C-34.09111328 149.95078125 -34.09433594 149.1515625 -34.09765625 148.328125 C-34.10289307 147.5949707 -34.10812988 146.86181641 -34.11352539 146.10644531 C-34 144 -34 144 -33.49702454 142.28565979 C-32.83841068 139.25690143 -32.90486807 136.4229019 -32.93408203 133.32299805 C-32.93875488 132.66066162 -32.94342773 131.9983252 -32.94824219 131.31591797 C-32.95872112 129.88143445 -32.97137597 128.44696553 -32.98596573 127.01251793 C-33.00804526 124.73773827 -33.02208819 122.46304267 -33.03366089 120.18818665 C-33.06719611 113.7214511 -33.10875225 107.25485423 -33.17138672 100.78833008 C-33.2091656 96.82853868 -33.23209783 92.86889007 -33.24569321 88.90894508 C-33.25371628 87.40471225 -33.26728079 85.90049787 -33.28662491 84.39636803 C-33.31328968 82.28579754 -33.32101351 80.17590439 -33.32470703 78.06518555 C-33.33438507 76.86701706 -33.34406311 75.66884857 -33.35403442 74.43437195 C-32.74804177 68.55583572 -30.71362192 63.99945597 -26.0625 60.1875 C-25.39347656 59.62417969 -24.72445312 59.06085938 -24.03515625 58.48046875 C-22 57 -22 57 -19.87109375 56.05078125 C-17.48234315 54.70929083 -17.10722595 53.47100425 -16 51 C-14.90433712 49.54001572 -13.77692644 48.10351438 -12.625 46.6875 C-1.4687753 32.41307586 -0.29167162 17.56567206 0 0 Z " transform="translate(80,449)" style="fill: #3E5E54;"></path><path d="M0 0 C1.22742877 3.68228631 0.6083322 4.60053285 -0.8125 8.125 C-2.20034484 11.69846443 -3.28371231 15.0371966 -3.9375 18.8125 C-4.89172013 23.4508396 -6.56770491 25.72371832 -10 29 C-16.4855944 32.88209151 -22.62584019 32.80477189 -30 32 C-32.72112571 30.98517432 -33.84049853 30.04277166 -36 28 C-36.61875 27.46375 -37.2375 26.9275 -37.875 26.375 C-39 25 -39 25 -39 23 C-37.58460937 22.70609375 -37.58460937 22.70609375 -36.140625 22.40625 C-21.02868807 18.88620043 -10.97076929 10.58173492 0 0 Z " transform="translate(67,349)" style="fill: #CBBA86;"></path><path d="M0 0 C0.66 0.33 1.32 0.66 2 1 C1.4652002 1.50861572 0.93040039 2.01723145 0.37939453 2.54125977 C-2.05198442 4.86827068 -4.46343169 7.21497182 -6.875 9.5625 C-7.71675781 10.36236328 -8.55851562 11.16222656 -9.42578125 11.98632812 C-10.23144531 12.77587891 -11.03710938 13.56542969 -11.8671875 14.37890625 C-12.61081543 15.0963501 -13.35444336 15.81379395 -14.12060547 16.55297852 C-19.07879984 23.00867898 -18.24735103 30.53251637 -18.15032959 38.32117081 C-18.12444667 40.42784934 -18.11167719 42.53427072 -18.10205078 44.64108276 C-18.07550767 49.88451329 -18.0276939 55.12770501 -17.97924805 60.37097168 C-17.7966682 80.47345253 -17.85424394 100.22093781 -21.125 120.125 C-22.491974 128.5408592 -22.491974 128.5408592 -22 137 C-19.72889272 139.85484511 -19.72889272 139.85484511 -17 142 C-15.13605145 146.50676131 -14.44377744 151.06370234 -13.875 155.875 C-13.78863281 156.56335938 -13.70226563 157.25171875 -13.61328125 157.9609375 C-13.40340434 159.63995275 -13.20092913 161.31989048 -13 163 C-6.82503941 164.76324632 -1.03007573 165.42885157 5.375 165.6875 C6.27605469 165.73455078 7.17710938 165.78160156 8.10546875 165.83007812 C12.70297401 166.22883988 12.70297401 166.22883988 17 165 C16.505 163.8553125 16.505 163.8553125 16 162.6875 C15 160 15 160 15 157 C15.66 157 16.32 157 17 157 C17.38909985 158.45463481 17.76088029 159.91391207 18.125 161.375 C18.33382812 162.18710937 18.54265625 162.99921875 18.7578125 163.8359375 C18.83773437 164.55007813 18.91765625 165.26421875 19 166 C16.16777459 168.83222541 14.02802682 168.29015483 10.15429688 168.32226562 C9.25775391 168.31904297 8.36121094 168.31582031 7.4375 168.3125 C6.56802734 168.32861328 5.69855469 168.34472656 4.80273438 168.36132812 C-2.53939531 168.36680324 -8.83456875 167.1102875 -15 163 C-15.61254883 161.03222656 -15.61254883 161.03222656 -15.95703125 158.640625 C-16.10076172 157.77179688 -16.24449219 156.90296875 -16.39257812 156.0078125 C-16.66993873 154.18626284 -16.93834655 152.36332481 -17.19726562 150.5390625 C-17.97602039 145.92774607 -18.52794692 142.99227648 -22.13671875 139.859375 C-24.90108584 137.45258563 -24.97175866 137.22759197 -25.46484375 133.25390625 C-25.35116144 131.83203405 -25.19327369 130.41325494 -25 129 C-24.90477051 128.21995605 -24.80954102 127.43991211 -24.71142578 126.63623047 C-24.2529752 123.21165175 -23.7014722 119.80391519 -23.15429688 116.39257812 C-21.24248313 103.90517032 -20.85381632 91.46196619 -21.01653099 78.8494873 C-21.0437937 76.62003876 -21.06126139 74.39069777 -21.07600403 72.16113281 C-21.11818037 65.83525914 -21.16682123 59.50960331 -21.24682617 53.18408203 C-21.29547018 49.28292549 -21.32436518 45.38204171 -21.34057045 41.48062134 C-21.35041233 40.0070627 -21.36753705 38.53353264 -21.39235497 37.06015015 C-21.62457706 22.98939258 -21.62457706 22.98939258 -17 17 C-16.13375 15.7625 -16.13375 15.7625 -15.25 14.5 C-12.68001687 11.64446319 -9.890566 9.20733862 -6.97265625 6.71484375 C-4.52202077 4.58448934 -2.2596163 2.33022931 0 0 Z " transform="translate(61,493)" style="fill: #355D64;"></path><path d="M0 0 C5.5679966 3.36180927 9.60112371 8.08787706 12.3125 14 C10.76415263 15.54834737 9.30821163 15.14964688 7.15625 15.16015625 C-8.86262552 15.02719445 -8.86262552 15.02719445 -14.3125 10 C-15.46128441 8.68710353 -16.59270714 7.35824569 -17.6875 6 C-18.3475 5.67 -19.0075 5.34 -19.6875 5 C-18.6875 2 -18.6875 2 -16.75 0.3125 C-11.15723375 -2.08439982 -5.78757862 -1.56951284 0 0 Z " transform="translate(390.6875,192)" style="fill: #BEA164;"></path><path d="M0 0 C0.99 0.33 1.98 0.66 3 1 C-2.51975763 5.55316413 -8.15416437 9.87834407 -14 14 C-19.10385665 17.6027629 -24.07058105 21.31436227 -28.8984375 25.28515625 C-30.59271241 26.66765938 -32.35037601 27.97227073 -34.125 29.25 C-51.98655761 46.33496815 -54.40123414 76.65947799 -55.09179688 100.1184082 C-55.13329063 103.41296289 -55.13660132 106.70522389 -55.125 110 C-55.12886719 111.09828125 -55.13273437 112.1965625 -55.13671875 113.328125 C-55.12849084 120.27248058 -54.75909328 127.09726566 -54 134 C-58.49872846 127.25190731 -58.32637248 119.12447561 -58.25 111.25 C-58.24540771 110.26298096 -58.24081543 109.27596191 -58.23608398 108.2590332 C-57.91855837 81.83711673 -57.91855837 81.83711673 -55 76 C-54.6713492 73.89412289 -54.34681565 71.78747077 -54.04907227 69.67700195 C-52.22789416 56.82300146 -49.2966683 44.94500245 -42 34 C-41.34 34 -40.68 34 -40 34 C-39.7525 33.4225 -39.505 32.845 -39.25 32.25 C-37.81700012 29.67060021 -36.21575324 27.93878408 -34 26 C-33.34 26 -32.68 26 -32 26 C-32 25.34 -32 24.68 -32 24 C-31.34 24 -30.68 24 -30 24 C-30 23.34 -30 22.68 -30 22 C-28.1015625 20.4921875 -28.1015625 20.4921875 -25.625 18.875 C-24.81289062 18.33617187 -24.00078125 17.79734375 -23.1640625 17.2421875 C-21 16 -21 16 -19 16 C-19 15.34 -19 14.68 -19 14 C-17.15317545 12.63918191 -15.24529085 11.36068052 -13.3125 10.125 C-10.15783307 8.09892575 -7.13766164 6.11222627 -4.23046875 3.7421875 C-2 2 -2 2 0 2 C0 1.34 0 0.68 0 0 Z " transform="translate(110,489)" style="fill: #BFB787;"></path><path d="M0 0 C2.4375 0.1875 2.4375 0.1875 3.4375 1.1875 C3.53644455 2.6221959 3.56720735 4.06190397 3.5625 5.5 C3.56507813 6.27988281 3.56765625 7.05976563 3.5703125 7.86328125 C3.4375 10.1875 3.4375 10.1875 2.9375 11.97485352 C2.32839771 14.67030958 2.30779035 17.15030767 2.3046875 19.9140625 C2.30339844 21.02910156 2.30210937 22.14414062 2.30078125 23.29296875 C2.30464844 24.45441406 2.30851563 25.61585937 2.3125 26.8125 C2.30863281 27.95074219 2.30476562 29.08898437 2.30078125 30.26171875 C2.30847847 36.96599356 2.60692913 43.5334732 3.4375 50.1875 C-2.43721631 44.31278369 -0.87410046 31.93400678 -0.87548828 24.12890625 C-0.75402573 16.51907257 0.36425965 9.53022624 2.4375 2.1875 C-0.05162772 2.81250886 -0.05162772 2.81250886 -2.5625 4.1875 C-6.65887228 12.4748655 -6.09883875 22.90697442 -6.25 31.9375 C-6.28327314 33.32815502 -6.31777149 34.71878129 -6.35351562 36.109375 C-6.43516512 39.46866841 -6.50458393 42.82772796 -6.5625 46.1875 C-6.8925 46.1875 -7.2225 46.1875 -7.5625 46.1875 C-11.12732628 32.13107117 -8.85976467 15.81641605 -4.5625 2.1875 C-2.5625 0.1875 -2.5625 0.1875 0 0 Z " transform="translate(244.5625,16.8125)" style="fill: #C0A877;"></path><path d="M0 0 C0.66 0.33 1.32 0.66 2 1 C-6.34540838 8.89308272 -15.59883744 15.51500245 -24.98828125 22.09375 C-35.6501898 29.62343361 -44.90347635 37.24555152 -51 49 C-51.66 49.99 -52.32 50.98 -53 52 C-53.76974834 54.72783078 -54.47520266 57.43187795 -55.125 60.1875 C-55.30675781 60.93708984 -55.48851562 61.68667969 -55.67578125 62.45898438 C-56.12251686 64.30470781 -56.5619694 66.15219132 -57 68 C-57.66 68 -58.32 68 -59 68 C-57.87282311 53.34670041 -51.60303365 40.62641488 -40.64038086 30.83789062 C-33.57403397 24.84631072 -25.95217148 19.53598558 -18.41015625 14.16796875 C-8.80179261 7.56259322 -8.80179261 7.56259322 0 0 Z " transform="translate(118,485)" style="fill: #436258;"></path><path d="M0 0 C1 3 1 3 0.19555664 4.80932617 C-0.22862549 5.46392822 -0.65280762 6.11853027 -1.08984375 6.79296875 C-1.54423828 7.50517578 -1.99863281 8.21738281 -2.46679688 8.95117188 C-2.95212891 9.68916016 -3.43746094 10.42714844 -3.9375 11.1875 C-4.41896484 11.93708984 -4.90042969 12.68667969 -5.39648438 13.45898438 C-6.5886202 15.3121064 -7.78996652 17.15853466 -9 19 C-8.39929688 19.13736572 -7.79859375 19.27473145 -7.1796875 19.41625977 C-4.23235739 20.20558171 -1.71433802 21.54979469 1 22.9375 C2.03125 23.46214844 3.0625 23.98679687 4.125 24.52734375 C5.07375 25.01332031 6.0225 25.49929688 7 26 C8.33245557 26.66841932 9.66538585 27.33590113 11 28 C11 28.66 11 29.32 11 30 C12.65 30.66 14.3 31.32 16 32 C16 32.66 16 33.32 16 34 C16.639375 34.268125 17.27875 34.53625 17.9375 34.8125 C20 36 20 36 21 39 C21.99 39.33 22.98 39.66 24 40 C23.505 40.99 23.505 40.99 23 42 C22.01 41.34 21.02 40.68 20 40 C20 39.34 20 38.68 20 38 C19.46375 37.7525 18.9275 37.505 18.375 37.25 C15.4176018 35.69347463 12.70275949 33.96564327 10 32 C10 31.34 10 30.68 10 30 C9.41355713 29.87238281 8.82711426 29.74476563 8.22290039 29.61328125 C6.06679178 29.01842734 4.38700818 28.26170407 2.43359375 27.1875 C1.78326172 26.83429688 1.13292969 26.48109375 0.46289062 26.1171875 C-0.53967773 25.56417969 -0.53967773 25.56417969 -1.5625 25 C-6.63350661 22.18057407 -6.63350661 22.18057407 -12 20 C-10.46885867 15.76543725 -8.35110294 12.00804228 -6 8.1875 C-5.64421875 7.59001953 -5.2884375 6.99253906 -4.921875 6.37695312 C-4.00555558 4.88109586 -3.00864753 3.43522138 -2 2 C-1.34 2 -0.68 2 0 2 C0 1.34 0 0.68 0 0 Z " transform="translate(311,331)" style="fill: #BEC790;"></path><path d="M0 0 C2 1 2 1 2.74609375 3.14208984 C2.97425781 4.07230957 3.20242188 5.0025293 3.4375 5.9609375 C3.69273437 6.99089844 3.94796875 8.02085937 4.2109375 9.08203125 C4.47132813 10.16871094 4.73171875 11.25539063 5 12.375 C5.26039063 13.42300781 5.52078125 14.47101563 5.7890625 15.55078125 C6.55833953 18.69393842 7.28745935 21.84353259 8 25 C8.20665283 25.87809326 8.41330566 26.75618652 8.6262207 27.66088867 C10.22668962 35.21245704 10.27232405 42.69948879 10.20581055 50.37963867 C10.18750037 52.56245627 10.18530207 54.74484767 10.18554688 56.92773438 C10.13591848 77.86408152 10.13591848 77.86408152 7 81 C6.39688385 82.68761858 5.86149763 84.40014476 5.375 86.125 C5.11460937 87.03507812 4.85421875 87.94515625 4.5859375 88.8828125 C4.39257812 89.58148438 4.19921875 90.28015625 4 91 C3.34 91 2.68 91 2 91 C2.27263672 89.96166016 2.27263672 89.96166016 2.55078125 88.90234375 C3.39702946 85.60848534 4.19731857 82.30473346 5 79 C5.28617187 77.92492187 5.57234375 76.84984375 5.8671875 75.7421875 C10.93932772 54.53581078 7.66832266 34.03895831 2.72753906 13.14111328 C1.7174322 8.78002774 0.8419803 4.39624141 0 0 Z " transform="translate(402,302)" style="fill: #BCA26B;"></path><path d="M0 0 C0.99 0.33 1.98 0.66 3 1 C-5.61960232 8.83845086 -14.84126523 15.4103303 -27 15 C-26.2575 15.94875 -25.515 16.8975 -24.75 17.875 C-24.33234375 18.40867187 -23.9146875 18.94234375 -23.484375 19.4921875 C-19.87413423 23.15943208 -16.26203563 23.34448187 -11.25 23.4375 C-5.52666547 23.38389957 -2.02495902 22.66515576 2.44921875 19.09375 C4 18 4 18 7 18 C5.94512267 18.96671756 4.88066719 19.92298745 3.8125 20.875 C3.22082031 21.40867187 2.62914063 21.94234375 2.01953125 22.4921875 C-3.71421823 26.77309136 -10.10664899 26.88513846 -17 26 C-21.80043701 24.05345769 -25.57135948 20.85722058 -29 17 C-28.67 16.01 -28.34 15.02 -28 14 C-24.9453125 12.83203125 -24.9453125 12.83203125 -21.125 11.8125 C-19.86945312 11.46832031 -18.61390625 11.12414062 -17.3203125 10.76953125 C-14 10 -14 10 -11 10 C-11 9.34 -11 8.68 -11 8 C-4.25 4 -4.25 4 -2 4 C-2 3.34 -2 2.68 -2 2 C-1.34 2 -0.68 2 0 2 C0 1.34 0 0.68 0 0 Z " transform="translate(55,357)" style="fill: #4E685A;"></path><path d="M0 0 C1.66611905 -0.042721 3.33382885 -0.04063832 5 0 C6 1 6 1 6.11352539 3.31665039 C6.10828857 4.31688232 6.10305176 5.31711426 6.09765625 6.34765625 C6.09443359 7.42724609 6.09121094 8.50683594 6.08789062 9.61914062 C6.07951172 10.75544922 6.07113281 11.89175781 6.0625 13.0625 C6.05798828 14.20267578 6.05347656 15.34285156 6.04882812 16.51757812 C6.03699747 19.34510351 6.0205141 22.1725264 6 25 C4 23 4 23 3.77294922 20.75341797 C3.78865967 19.38660889 3.78865967 19.38660889 3.8046875 17.9921875 C3.81435547 16.51298828 3.81435547 16.51298828 3.82421875 15.00390625 C3.84097656 13.97136719 3.85773438 12.93882813 3.875 11.875 C3.88402344 10.83472656 3.89304687 9.79445313 3.90234375 8.72265625 C3.92596253 6.14820908 3.95889851 3.57421788 4 1 C0.92749659 2.62855247 0.92749659 2.62855247 0.26953125 4.92578125 C-2.30320641 18.36118901 -1.73781154 31.92736319 4.69921875 44.25390625 C6 47 6 47 5 50 C4.22040627 48.37918457 3.45190846 46.75303217 2.6875 45.125 C2.25824219 44.22007813 1.82898438 43.31515625 1.38671875 42.3828125 C-2.01690946 34.0798772 -3.48657759 26.79449631 -3.375 17.8125 C-3.38660156 16.86697266 -3.39820313 15.92144531 -3.41015625 14.94726562 C-3.38609376 9.19232055 -2.67216416 5.11104415 0 0 Z " transform="translate(332,6)" style="fill: #BEA571;"></path><path d="M0 0 C0.66 0.33 1.32 0.66 2 1 C-12.26641849 10.90723506 -25.34506777 15.1706314 -42.8125 15.1875 C-43.61260498 15.18830566 -44.41270996 15.18911133 -45.23706055 15.18994141 C-49.91843387 15.14607638 -54.38205071 14.7706858 -59 14 C-59 13.67 -59 13.34 -59 13 C-58.23558594 12.9906543 -57.47117188 12.98130859 -56.68359375 12.97167969 C-26.44231198 13.2251877 -26.44231198 13.2251877 0 0 Z " transform="translate(310,316)" style="fill: #9DB988;"></path><path d="M0 0 C2.375 0.3125 2.375 0.3125 3.375 1.3125 C3.5625 4.75 3.5625 4.75 3.375 8.3125 C2.715 8.9725 2.055 9.6325 1.375 10.3125 C1.375 7.6725 1.375 5.0325 1.375 2.3125 C-0.60520421 2.75283992 -0.60520421 2.75283992 -2.625 4.3125 C-5.40982329 10.33283053 -6.06878288 15.29510189 -5.9375 21.875 C-5.94233398 23.09219727 -5.94233398 23.09219727 -5.94726562 24.33398438 C-5.90281678 29.34054093 -5.11847606 33.498866 -3.625 38.3125 C-3.625 39.6325 -3.625 40.9525 -3.625 42.3125 C-4.285 41.9825 -4.945 41.6525 -5.625 41.3125 C-9.37452237 29.41034643 -10.8465316 15.9803669 -5.625 4.3125 C-3.10808145 0.3700097 -3.10808145 0.3700097 0 0 Z " transform="translate(288.625,69.6875)" style="fill: #BEA571;"></path><path d="M0 0 C3.09087496 0.15850641 4.5434947 0.5434947 6.75 2.75 C9.15152656 7.07274781 9.15885318 11.57327054 9.1875 16.4375 C9.20167969 17.52933594 9.21585937 18.62117188 9.23046875 19.74609375 C8.99055478 23.13335377 8.20639188 25.83858571 7 29 C6.67 29 6.34 29 6 29 C6.165 27.88625 6.33 26.7725 6.5 25.625 C7.50170762 17.28725713 7.44603352 10.75357542 4 3 C2.68 3.33 1.36 3.66 0 4 C0.09539062 4.76183594 0.19078125 5.52367188 0.2890625 6.30859375 C1.37432484 16.41667668 0.48362077 23.40899412 -5 32 C-5.33 31.34 -5.66 30.68 -6 30 C-5.360625 28.865625 -4.72125 27.73125 -4.0625 26.5625 C-1.24240276 20.7105576 -1.73283305 14.81733838 -1.97290039 8.47680664 C-2.01338501 7.2681897 -2.01338501 7.2681897 -2.0546875 6.03515625 C-2.09062012 5.3069165 -2.12655273 4.57867676 -2.16357422 3.82836914 C-2 2 -2 2 0 0 Z " transform="translate(348,105)" style="fill: #BFA877;"></path><path d="M0 0 C-6.61809577 2.46254726 -13.00439516 2.18935472 -20 2 C-21.00900158 4.62219572 -21.11416951 5.71051581 -20.06640625 8.3671875 C-14.69679325 17.32119152 -8.89191797 21.82045494 1 25 C1 25.33 1 25.66 1 26 C-6.47622596 25.86406862 -10.73841648 23.2518758 -16 18 C-20.76249178 11.89245302 -23.14455802 7.80613305 -23 0 C-22.04738281 0.01160156 -21.09476563 0.02320313 -20.11328125 0.03515625 C-18.85902344 0.04417969 -17.60476562 0.05320312 -16.3125 0.0625 C-15.07113281 0.07410156 -13.82976563 0.08570313 -12.55078125 0.09765625 C-0.68597561 -0.22865854 -0.68597561 -0.22865854 0 0 Z " transform="translate(38,363)" style="fill: #436667;"></path><path d="M0 0 C0.66 0 1.32 0 2 0 C2.38909985 1.45463481 2.76088029 2.91391207 3.125 4.375 C3.43824219 5.59316406 3.43824219 5.59316406 3.7578125 6.8359375 C3.83773437 7.55007813 3.91765625 8.26421875 4 9 C1.58858009 11.41141991 1.00504519 11.25605507 -2.2890625 11.265625 C-3.14886719 11.26820313 -4.00867188 11.27078125 -4.89453125 11.2734375 C-5.79558594 11.26570312 -6.69664063 11.25796875 -7.625 11.25 C-8.94177734 11.26160156 -8.94177734 11.26160156 -10.28515625 11.2734375 C-15.85792583 11.25687652 -20.65198273 10.57074633 -26 9 C-25.01 8.34 -24.02 7.68 -23 7 C-22.01 7.33 -21.02 7.66 -20 8 C-16.65515166 8.34495533 -13.29579843 8.46496896 -9.9375 8.625 C-9.01388672 8.6765625 -8.09027344 8.728125 -7.13867188 8.78125 C-6.25630859 8.82507813 -5.37394531 8.86890625 -4.46484375 8.9140625 C-3.25235962 8.9752124 -3.25235962 8.9752124 -2.01538086 9.03759766 C0.07212565 9.14329252 0.07212565 9.14329252 2 8 C1.67 7.236875 1.34 6.47375 1 5.6875 C0 3 0 3 0 0 Z " transform="translate(76,650)" style="fill: #3B646A;"></path><path d="M0 0 C0 0.33 0 0.66 0 1 C-1.75376953 1.27263672 -1.75376953 1.27263672 -3.54296875 1.55078125 C-5.09123648 1.80413415 -6.6394087 2.05807126 -8.1875 2.3125 C-8.95642578 2.43044922 -9.72535156 2.54839844 -10.51757812 2.66992188 C-15.04266707 3.4273402 -18.06666204 4.54795568 -22 7 C-22.99 6.67 -23.98 6.34 -25 6 C-24 3 -24 3 -21.91015625 1.88671875 C-18.42854018 0.82587734 -15.04585478 0.28907516 -11.4375 -0.1875 C-10.13683594 -0.36667969 -8.83617187 -0.54585938 -7.49609375 -0.73046875 C-4.56070406 -0.95677254 -2.72360718 -0.97717204 0 0 Z " transform="translate(216,392)" style="fill: #89BDBE;"></path><path d="M0 0 C1.64574566 -0.02688151 3.29161413 -0.04634123 4.9375 -0.0625 C5.85402344 -0.07410156 6.77054688 -0.08570313 7.71484375 -0.09765625 C10 0 10 0 11 1 C12.47396739 1.20768229 13.9549126 1.36716017 15.4375 1.5 C19.78082192 1.89041096 19.78082192 1.89041096 22 3 C25.34155338 3.27699719 28.68285874 3.44700704 32.03125 3.62109375 C35 4 35 4 37 6 C30.6525522 6.13964385 24.75221236 5.68573423 18.5 4.625 C17.70980469 4.49867188 16.91960937 4.37234375 16.10546875 4.2421875 C10.68971435 3.35581198 5.34446284 2.24352944 0 1 C0 0.67 0 0.34 0 0 Z " transform="translate(214,323)" style="fill: #929674;"></path><path d="M0 0 C0.12544803 6.52329749 0.12544803 6.52329749 -0.46875 8.78125 C-1.22029447 11.92005339 -1.35393623 15.03215895 -1.5625 18.25 C-1.64628906 19.51328125 -1.73007812 20.7765625 -1.81640625 22.078125 C-1.87699219 23.04234375 -1.93757813 24.0065625 -2 25 C-2.33 25 -2.66 25 -3 25 C-3.0544207 22.31222198 -3.09387266 19.62556788 -3.125 16.9375 C-3.15013672 15.80924805 -3.15013672 15.80924805 -3.17578125 14.65820312 C-3.21865121 9.70672291 -2.58399375 5.69585549 -1 1 C-4.40320742 2.01176437 -5.75725331 2.64843582 -7.8125 5.625 C-8.204375 6.40875 -8.59625 7.1925 -9 8 C-9.33 7.34 -9.66 6.68 -10 6 C-7.43120016 0.00613371 -6.40919015 -1.51796609 0 0 Z " transform="translate(373,38)" style="fill: #C5AF7F;"></path><path d="M0 0 C5.75172917 0.07122036 10.69634665 1.15563857 16.01928711 3.25976562 C16.01928711 3.58976563 16.01928711 3.91976562 16.01928711 4.25976562 C15.02928711 4.09476563 14.03928711 3.92976562 13.01928711 3.75976562 C6.07048186 2.86598814 -0.9895379 3.1834057 -7.98071289 3.25976562 C-8.31071289 5.56976563 -8.64071289 7.87976563 -8.98071289 10.25976562 C-9.31071289 10.25976562 -9.64071289 10.25976562 -9.98071289 10.25976562 C-10.00760505 8.78069671 -10.02705911 7.3014908 -10.04321289 5.82226562 C-10.05481445 4.99855469 -10.06641602 4.17484375 -10.07836914 3.32617188 C-9.83922838 -1.73404672 -3.91192438 0.01869721 0 0 Z " transform="translate(300.980712890625,154.740234375)" style="fill: #BDA776;"></path><path d="M0 0 C-0.65226562 0.56847656 -1.30453125 1.13695312 -1.9765625 1.72265625 C-7.06885149 6.22159593 -11.72733637 10.71538972 -16 16 C-16.33 15.01 -16.66 14.02 -17 13 C-15.56354149 11.39490066 -14.12579294 9.79095576 -12.6875 8.1875 C-11.88699219 7.29417969 -11.08648437 6.40085937 -10.26171875 5.48046875 C-9.51535156 4.66191406 -8.76898438 3.84335937 -8 3 C-7.47019531 2.41863281 -6.94039062 1.83726562 -6.39453125 1.23828125 C-4.15702709 -0.74852216 -2.72354819 -1.36177409 0 0 Z " transform="translate(191,399)" style="fill: #8FC3BE;"></path><path d="M0 0 C0.33 0.99 0.66 1.98 1 3 C1.95261719 2.97679687 2.90523438 2.95359375 3.88671875 2.9296875 C5.14097656 2.91164062 6.39523437 2.89359375 7.6875 2.875 C9.54955078 2.84019531 9.54955078 2.84019531 11.44921875 2.8046875 C14.81237857 2.98967979 16.9985587 3.54232105 20 5 C20 5.33 20 5.66 20 6 C10.74400342 6.27675737 2.12004552 5.53140195 -7 4 C-7 3.67 -7 3.34 -7 3 C-4.69 3 -2.38 3 0 3 C0 2.01 0 1.02 0 0 Z " transform="translate(370,163)" style="fill: #BBAC7D;"></path><path d="M0 0 C1.32830615 3.98491845 0.23204404 5.40048548 -1.4375 9.1875 C-1.91058594 10.27417969 -2.38367188 11.36085938 -2.87109375 12.48046875 C-3.24363281 13.31191406 -3.61617187 14.14335937 -4 15 C-4.68707555 12.50935112 -5 10.62113708 -5 8 C-5.99 8 -6.98 8 -8 8 C-5.36 5.36 -2.72 2.72 0 0 Z " transform="translate(67,349)" style="fill: #C4C197;"></path><path d="M0 0 C4.15159858 3.29061364 4.62723467 8.16928958 5.9375 13.06640625 C6.77196018 16.2765575 6.77196018 16.2765575 10 18 C11.65549531 18.38499891 13.3222433 18.72793135 15 19 C15 19.33 15 19.66 15 20 C8.52761226 20.36636157 8.52761226 20.36636157 6.40234375 18.890625 C4.46571128 16.27967761 3.77341092 13.6786418 2.875 10.5625 C2.54242188 9.42941406 2.20984375 8.29632812 1.8671875 7.12890625 C1.21021516 4.75847901 0.57574303 2.39109605 0 0 Z " transform="translate(182,628)" style="fill: #385F65;"></path><path d="M0 0 C0.66 0.33 1.32 0.66 2 1 C-2.62 5.62 -7.24 10.24 -12 15 C-12 11.11566834 -10.82920314 10.32394504 -8.25 7.5 C-7.55390625 6.7265625 -6.8578125 5.953125 -6.140625 5.15625 C-4.19891408 3.20036601 -2.25069252 1.58156772 0 0 Z " transform="translate(94,330)" style="fill: #ADD6A5;"></path><path d="M0 0 C0.99 0.33 1.98 0.66 3 1 C-9.09621993 12 -9.09621993 12 -14 12 C-14 11.34 -14 10.68 -14 10 C-13.01 10 -12.02 10 -11 10 C-11 9.34 -11 8.68 -11 8 C-4.25 4 -4.25 4 -2 4 C-2 3.34 -2 2.68 -2 2 C-1.34 2 -0.68 2 0 2 C0 1.34 0 0.68 0 0 Z " transform="translate(55,357)" style="fill: #516A5A;"></path><path d="M0 0 C1.4540625 0.0309375 1.4540625 0.0309375 2.9375 0.0625 C3.2675 1.7125 3.5975 3.3625 3.9375 5.0625 C3.2775 4.0725 2.6175 3.0825 1.9375 2.0625 C0.6175 2.3925 -0.7025 2.7225 -2.0625 3.0625 C-1.49643721 7.75273454 -0.87712495 12.40750026 -0.0625 17.0625 C-4.34121385 11.85363097 -4.2771749 7.6100845 -4.0625 1.0625 C-3.0625 0.0625 -3.0625 0.0625 0 0 Z " transform="translate(349.0625,210.9375)" style="fill: #BCA36E;"></path><path d="M0 0 C0.99 0.33 1.98 0.66 3 1 C1.41728767 2.27160666 -0.16619635 3.54225285 -1.75 4.8125 C-2.63171875 5.52019531 -3.5134375 6.22789062 -4.421875 6.95703125 C-5.69804688 7.96830078 -5.69804688 7.96830078 -7 9 C-7.72703125 9.58136719 -8.4540625 10.16273438 -9.203125 10.76171875 C-11 12 -11 12 -13 12 C-13 11.34 -13 10.68 -13 10 C-11.26451831 8.55473264 -9.46024037 7.1912778 -7.625 5.875 C-6.62726563 5.15054687 -5.62953125 4.42609375 -4.6015625 3.6796875 C-2 2 -2 2 0 2 C0 1.34 0 0.68 0 0 Z " transform="translate(110,489)" style="fill: #B5BC96;"></path><path d="M0 0 C0.33 0 0.66 0 1 0 C1.99 4.62 2.98 9.24 4 14 C1.69 12.35 -0.62 10.7 -3 9 C-2.01 8.34 -1.02 7.68 0 7 C0.25015873 3.41642759 0.25015873 3.41642759 0 0 Z " transform="translate(280,97)" style="fill: #F7EED6;"></path><path d="M0 0 C1.2065625 0.0309375 1.2065625 0.0309375 2.4375 0.0625 C1.509375 0.5265625 1.509375 0.5265625 0.5625 1 C-2.25726912 3.73683473 -2.40883501 6.10520796 -2.97265625 9.90625 C-3.65595501 12.40413685 -4.60993525 13.41155094 -6.5625 15.0625 C-6.0878725 12.7490641 -5.60767721 10.43676981 -5.125 8.125 C-4.85816406 6.83722656 -4.59132813 5.54945312 -4.31640625 4.22265625 C-3.32839034 0.08118025 -3.32839034 0.08118025 0 0 Z " transform="translate(406.5625,111.9375)" style="fill: #BDA674;"></path><path d="M0 0 C0.66 0 1.32 0 2 0 C2.38909985 1.45463481 2.76088029 2.91391207 3.125 4.375 C3.43824219 5.59316406 3.43824219 5.59316406 3.7578125 6.8359375 C3.83773437 7.55007813 3.91765625 8.26421875 4 9 C3.34 9.66 2.68 10.32 2 11 C-0.125 10.625 -0.125 10.625 -2 10 C-0.68 9.34 0.64 8.68 2 8 C1.67 7.236875 1.34 6.47375 1 5.6875 C0 3 0 3 0 0 Z " transform="translate(76,650)" style="fill: #446A71;"></path><path d="M0 0 C0.66 0.33 1.32 0.66 2 1 C1.49339844 1.68835938 1.49339844 1.68835938 0.9765625 2.390625 C-2.36308951 6.98192426 -2.36308951 6.98192426 -5 12 C-5.68359375 10.265625 -5.68359375 10.265625 -6 8 C-4.78515625 5.859375 -4.78515625 5.859375 -3.0625 3.75 C-2.49660156 3.04359375 -1.93070312 2.3371875 -1.34765625 1.609375 C-0.90292969 1.07828125 -0.45820312 0.5471875 0 0 Z " transform="translate(72,522)" style="fill: #365953;"></path><path d="M0 0 C2.6815279 3.07692746 3.42087807 5.19734663 3.6875 9.25 C3.75324219 10.14203125 3.81898438 11.0340625 3.88671875 11.953125 C3.92410156 12.62859375 3.96148437 13.3040625 4 14 C1.8553857 11.8553857 1.55435397 10.98260002 0.875 8.125 C0.70742188 7.44695312 0.53984375 6.76890625 0.3671875 6.0703125 C0 4 0 4 0 0 Z " transform="translate(344,389)" style="fill: #D1C391;"></path><path d="M0 0 C2.125 0.375 2.125 0.375 4 1 C3.01 1.66 2.02 2.32 1 3 C0.20562077 5.18505129 0.20562077 5.18505129 -0.1875 7.625 C-0.34605469 8.44226563 -0.50460937 9.25953125 -0.66796875 10.1015625 C-0.77753906 10.72804688 -0.88710938 11.35453125 -1 12 C-1.33 12 -1.66 12 -2 12 C-2.05395478 10.37536158 -2.09277195 8.75021459 -2.125 7.125 C-2.14820313 6.22007812 -2.17140625 5.31515625 -2.1953125 4.3828125 C-2 2 -2 2 0 0 Z " transform="translate(283,421)" style="fill: #89936F;"></path><path d="M0 0 C3.3 0 6.6 0 10 0 C10 0.66 10 1.32 10 2 C6.78548731 3.60725635 3.56387464 3.05748185 0 3 C0 2.01 0 1.02 0 0 Z " transform="translate(52,637)" style="fill: #ADAA7E;"></path><path d="M0 0 C0.33 0.99 0.66 1.98 1 3 C0.319375 3.5878125 0.319375 3.5878125 -0.375 4.1875 C-2.27642919 6.30832487 -3.06204028 8.33042235 -4 11 C-4.66 11 -5.32 11 -6 11 C-5.39305845 7.84669446 -4.3583335 5.81111133 -2.4375 3.25 C-1.98246094 2.63640625 -1.52742188 2.0228125 -1.05859375 1.390625 C-0.70925781 0.93171875 -0.35992187 0.4728125 0 0 Z " transform="translate(47,506)" style="fill: #3E656B;"></path><path d="M0 0 C0.66 0.33 1.32 0.66 2 1 C1.32829194 4.8063457 0.27253436 8.35206816 -1 12 C-2.45606519 7.47907032 -1.27032841 4.48351204 0 0 Z " transform="translate(320,305)" style="fill: #D3D39A;"></path><path d="M0 0 C2.32947183 2.11770166 3.88750845 4.03335588 5 7 C4.67 7.99 4.34 8.98 4 10 C4 9.34 4 8.68 4 8 C3.34 8 2.68 8 2 8 C0.23537317 4.91190305 0 3.76687864 0 0 Z " transform="translate(339,379)" style="fill: #CFC794;"></path></svg>