<svg version="1.1" id="Layer_1" xmlns="http://www.w3.org/2000/svg" xmlns:xlink="http://www.w3.org/1999/xlink" x="0px" y="0px"
	 width="100%" viewBox="0 0 1024 1024" enable-background="new 0 0 1024 1024" xml:space="preserve">
<path fill="#000000" opacity="1.000000" stroke="none" 
	d="
M644.239624,184.961151 
	C646.574280,183.395279 648.633423,183.232864 650.558167,184.802490 
	C652.578491,186.450043 652.256409,188.544846 651.525757,190.739166 
	C646.959045,204.453735 649.396179,217.276077 656.311035,229.630356 
	C664.863281,244.909866 667.612793,261.112335 663.570923,278.317474 
	C663.126648,280.208527 663.125488,282.203674 662.908264,284.250061 
	C670.760986,282.891907 678.521545,274.371735 679.635925,266.212311 
	C679.748291,265.389435 679.694824,264.544739 679.790100,263.718445 
	C680.148987,260.605621 681.456177,258.031403 684.925537,258.065460 
	C688.356079,258.099121 689.962463,260.752136 690.097229,263.769257 
	C690.410645,270.783783 688.396667,277.235931 684.452698,283.070496 
	C681.113159,288.010895 676.439636,291.472137 671.619385,294.795990 
	C667.592590,297.572723 663.940796,300.621033 662.791199,305.802673 
	C661.556885,311.365906 662.672119,313.318176 668.234253,314.730865 
	C678.249390,317.274567 687.446655,321.873230 692.717468,330.811859 
	C700.957153,344.785065 713.521057,353.479126 726.638855,361.806274 
	C735.807129,367.626312 737.242615,373.205505 731.868958,382.690735 
	C727.026794,391.237946 717.763489,395.662720 708.194397,393.751068 
	C699.341675,391.982574 690.469421,390.754395 681.413879,391.387451 
	C673.307373,391.954224 671.873535,393.756073 673.621948,401.719421 
	C675.412048,409.872742 678.345093,417.674042 681.345886,425.436707 
	C689.478333,446.474426 696.128540,467.933960 698.052002,490.508698 
	C700.265625,516.487976 694.489746,540.796448 681.346069,563.341858 
	C677.304199,570.274963 672.814087,576.894531 667.283997,582.716370 
	C664.482910,585.665222 664.069885,588.208801 666.123169,591.968140 
	C673.486389,605.449646 681.563354,618.447815 690.730042,630.771484 
	C692.122314,632.643311 693.541748,634.498291 694.855469,636.424561 
	C703.578857,649.214966 703.773682,659.991821 694.344299,672.331482 
	C683.285767,686.803040 673.380493,701.965576 664.373718,717.765686 
	C654.132507,735.731384 636.571960,742.836182 618.076294,748.187866 
	C612.437805,749.819336 610.420410,747.630615 610.819397,741.576416 
	C611.180603,736.093628 612.312561,730.719971 613.849121,725.427490 
	C615.972534,718.113342 620.581909,713.687561 628.254700,712.825623 
	C631.706116,712.437927 634.350891,711.444336 634.879028,707.422302 
	C635.134460,705.477234 636.806091,704.406494 638.481018,703.533386 
	C639.957214,702.763855 641.686157,702.235352 642.834290,701.118103 
	C654.387451,689.875977 662.354614,676.318298 667.502563,661.168640 
	C668.945801,656.921631 666.752869,652.916199 663.201050,650.163879 
	C658.069214,646.187317 652.772461,642.423523 647.546692,638.568176 
	C638.833374,632.139893 630.121399,625.709900 621.406921,619.283264 
	C619.548401,617.912659 617.694214,616.528503 614.928528,615.833923 
	C611.341675,624.057007 609.362122,632.605408 607.395142,641.120239 
	C604.500244,653.651733 603.475830,666.349243 604.052734,679.245850 
	C604.530151,689.918457 601.625793,700.355713 600.912415,710.977173 
	C599.165833,736.979492 601.747253,762.165100 614.301514,785.579468 
	C617.845215,792.188599 621.423157,798.784607 624.108704,805.803284 
	C626.318237,811.577942 624.733093,814.081116 618.702637,814.308533 
	C611.030945,814.597839 603.431641,814.187805 595.879578,812.471619 
	C590.445251,811.236755 588.045471,808.043335 587.676453,802.720215 
	C587.470032,799.742676 587.037476,796.760071 586.435059,793.835754 
	C585.648743,790.018250 584.267883,786.529297 580.552490,784.412720 
	C577.271179,782.543396 576.334229,779.449768 576.753662,775.835693 
	C579.684082,750.586548 577.854553,725.599060 571.459290,701.084717 
	C568.536438,689.881104 569.915710,678.602966 568.809998,667.398865 
	C567.261719,651.711060 562.950500,636.729980 557.909973,621.900635 
	C557.205322,619.827393 556.091309,618.325012 553.673096,618.390137 
	C532.336670,618.964783 512.746887,612.051147 493.338531,604.344849 
	C492.584564,604.045471 491.770325,603.898010 490.816467,603.633179 
	C490.312012,604.426819 489.695312,605.048706 489.479401,605.787720 
	C483.465424,626.370544 470.571991,642.248657 455.012665,656.313416 
	C453.900269,657.318909 452.825745,658.366882 451.702972,659.360413 
	C443.010803,667.052368 440.462097,676.049988 444.789246,687.189270 
	C449.742462,699.940247 454.914032,712.574890 461.547821,724.537781 
	C470.599243,740.860474 480.214050,756.854309 490.479584,772.450928 
	C494.056000,777.884644 497.455078,783.439941 499.557892,789.640198 
	C501.414886,795.115540 500.113983,797.022400 494.420776,797.371521 
	C486.924652,797.831238 479.464355,797.503540 472.049988,796.200989 
	C467.301880,795.366821 464.150177,793.045471 463.345001,787.984314 
	C462.175751,780.634888 459.679871,774.234253 451.983429,771.066589 
	C448.896393,769.796021 448.572479,766.225159 448.077942,763.331238 
	C445.243988,746.748535 437.634918,732.208679 429.249023,717.921997 
	C422.319153,706.115906 414.153168,695.152588 406.511871,683.838196 
	C399.780762,673.871521 399.622314,664.644409 406.784882,654.840027 
	C411.923889,647.805603 415.793427,640.013306 415.714447,630.900452 
	C415.707672,630.122253 415.569122,629.345215 415.401855,627.663818 
	C409.571503,633.214478 404.490448,638.449158 398.641174,642.769348 
	C388.859314,649.994019 379.164581,657.350342 369.164185,664.261963 
	C356.244812,673.191040 348.704041,685.120789 346.090424,700.677856 
	C343.190094,717.941650 340.867615,735.191162 341.111511,752.743042 
	C341.241486,762.093567 343.350525,770.814819 347.667816,779.111145 
	C351.357208,786.200867 354.802124,793.430359 357.316467,801.042664 
	C359.127869,806.526794 358.044800,808.120667 352.427704,808.376099 
	C345.606934,808.686340 338.775848,808.784668 332.067200,807.238464 
	C325.055389,805.622498 323.446228,803.455078 322.594391,796.442261 
	C321.799103,789.894958 321.357544,783.244202 315.201202,778.638672 
	C312.193512,776.388611 313.379333,772.314331 313.928497,769.170166 
	C318.854034,740.969604 319.684143,712.599915 317.879425,684.098022 
	C317.868866,683.931641 317.875122,683.763062 317.850159,683.599060 
	C315.476685,668.012878 320.153015,655.937927 332.771484,645.480774 
	C349.031525,632.005615 353.627991,613.484009 348.890625,593.009155 
	C344.438629,573.767761 338.308533,554.885193 337.609528,534.407593 
	C333.638458,535.516357 330.363007,536.497742 327.052856,537.343506 
	C313.871338,540.711182 297.935669,531.040527 292.886627,516.669922 
	C290.880676,510.960602 293.189728,508.319214 299.093201,509.388916 
	C307.114532,510.842346 314.223541,508.660004 320.912018,504.345001 
	C328.657806,499.347870 335.444153,493.169464 342.182831,486.973999 
	C362.212616,468.558838 385.044586,455.871277 412.476746,453.135284 
	C426.238983,451.762665 440.080780,452.441406 453.859131,454.042206 
	C476.865936,456.715179 499.205322,463.068176 522.104370,466.280945 
	C536.736206,468.333801 551.358215,468.116852 565.739868,464.421173 
	C583.937195,459.744995 595.907227,444.964142 598.743713,424.724762 
	C599.838806,416.910614 599.743530,409.116425 599.686035,401.298645 
	C599.553894,383.326233 598.400574,365.242828 606.415161,348.678375 
	C605.033325,346.295624 602.991089,346.551941 601.305420,346.084473 
	C582.282043,340.809143 571.531982,328.079956 567.926758,308.974762 
	C566.951355,303.805756 568.601746,301.807861 573.884888,301.675842 
	C591.088623,301.245911 606.096497,307.462158 619.987915,317.036530 
	C621.410339,318.016907 622.567200,319.767090 624.768433,319.197723 
	C626.449707,316.988525 624.698425,315.367920 623.712830,313.824554 
	C619.721802,307.574982 614.536743,302.470093 608.530212,298.110809 
	C594.825134,288.164246 578.984131,282.045990 564.562744,273.385742 
	C549.420532,264.292572 535.516052,253.815231 525.721680,238.779617 
	C514.656128,221.792572 512.016113,202.997437 514.231445,183.229980 
	C514.787842,178.264755 515.625366,173.348663 517.067261,168.560059 
	C518.056335,165.275162 519.787231,162.393936 523.772156,163.602722 
	C527.360596,164.691223 527.496765,167.712326 526.729736,170.996445 
	C522.302246,189.952484 523.640015,208.295364 532.446716,225.925766 
	C538.440063,237.924026 547.902405,246.525574 558.848816,254.342407 
	C560.149902,251.935287 558.735962,250.132217 558.446960,248.351517 
	C556.954163,239.151077 557.071350,230.123276 560.556885,221.323837 
	C561.910461,217.906769 563.939697,215.204620 567.995605,216.574570 
	C571.817017,217.865311 571.241150,221.117950 570.294006,224.139008 
	C564.216797,243.522751 574.092712,260.869995 588.003662,269.478180 
	C596.350830,274.643494 605.125916,279.115051 613.674194,283.959320 
	C616.073669,285.319061 617.687195,284.707611 619.096436,282.484009 
	C623.624023,275.340027 626.463684,267.910614 623.535095,259.338257 
	C622.430664,256.105560 622.762024,253.200378 626.453613,252.039413 
	C629.974487,250.932144 632.347412,252.877502 633.470459,256.012573 
	C636.250610,263.773041 636.190796,271.682129 633.894348,279.547058 
	C633.103455,282.255829 631.918030,284.852173 630.866760,287.481445 
	C629.415466,291.111084 629.520386,294.629578 631.529663,298.026062 
	C633.735229,301.754150 636.006714,305.443970 638.166687,309.198059 
	C639.905396,312.219940 642.510071,313.522034 645.727783,312.411072 
	C649.056641,311.261749 647.163879,308.450012 646.918640,306.374268 
	C645.819946,297.072021 648.001526,288.174408 649.944458,279.221985 
	C651.495300,272.075806 652.918152,264.891449 652.294250,257.506104 
	C651.397888,246.895950 646.465759,238.142212 639.438660,230.488174 
	C634.482361,225.089645 629.138916,220.048416 624.112366,214.711945 
	C610.062622,199.795746 603.335876,182.416351 606.720459,161.768097 
	C607.067200,159.652634 607.742371,157.568787 608.469849,155.543869 
	C609.279968,153.289291 610.895264,151.890472 613.446228,152.360138 
	C615.906799,152.813171 617.240845,154.510193 617.212219,156.955719 
	C617.179077,159.778137 616.953918,162.610519 616.616821,165.415085 
	C614.850403,180.109512 624.305481,200.509003 636.783691,208.122055 
	C639.338684,200.464249 638.748352,191.873108 644.239624,184.961151 
M702.921692,382.532562 
	C708.538513,382.918365 714.562500,385.996307 719.937622,380.151276 
	C718.164978,378.805389 716.857178,377.850037 715.590881,376.842499 
	C713.503174,375.181366 711.861511,372.974854 712.869629,370.373077 
	C714.297119,366.688934 712.114380,365.238586 709.716797,363.561615 
	C700.958313,357.435669 691.899353,351.441895 687.048889,341.483643 
	C677.882629,322.665100 646.066101,317.033936 628.230896,330.729980 
	C623.371277,334.461731 622.108398,334.192932 617.736206,329.541779 
	C608.664490,319.891266 596.935425,315.460022 584.444336,312.532562 
	C583.175903,312.235260 581.785767,312.079132 580.635681,313.263092 
	C579.814087,315.370636 581.126770,317.083740 581.978210,318.814606 
	C588.283081,331.631287 599.696716,336.244751 612.904358,337.600616 
	C621.396362,338.472382 622.883850,340.953918 618.513306,348.354523 
	C610.571106,361.803040 608.721069,376.544922 609.643250,391.722961 
	C610.210449,401.058533 610.296997,410.327240 609.670715,419.658691 
	C609.010986,429.489258 604.764648,438.694275 604.959534,448.643097 
	C604.990173,450.204468 604.243103,451.728363 602.871765,452.442627 
	C599.383057,454.259857 598.484619,457.665771 597.216248,460.900085 
	C595.418762,465.483704 594.266602,470.406067 590.408630,474.406677 
	C586.533325,469.114166 581.643799,469.615631 576.410645,471.336334 
	C570.085388,473.416107 563.754883,475.526733 557.316772,477.201416 
	C552.033386,478.575775 546.768738,481.367340 541.268982,480.373322 
	C531.510498,478.609619 521.441101,479.096405 511.891174,475.825836 
	C495.740906,470.294861 478.776581,468.317749 462.117645,465.092957 
	C443.182465,461.427521 424.061981,461.067627 404.984131,464.413574 
	C401.568054,465.012665 398.693512,466.190125 396.284332,469.412994 
	C393.717712,472.846497 390.186676,476.309723 385.020386,475.664368 
	C378.538208,474.854645 373.041504,476.522705 368.456635,481.298889 
	C365.689758,484.181244 362.549103,486.734161 360.353851,490.113068 
	C348.516052,508.333374 345.809021,528.379395 348.784180,549.471985 
	C350.438873,561.202881 353.975616,572.506897 357.074249,583.903381 
	C360.531036,596.617126 361.723236,609.338440 358.466766,622.363586 
	C356.573181,629.937561 353.064301,636.977600 351.883972,644.810120 
	C351.242279,649.068481 348.503784,652.611633 344.610077,655.157532 
	C341.564148,657.149048 338.864441,659.694519 336.121613,662.119141 
	C332.580750,665.249207 330.436462,669.032532 330.982056,673.995422 
	C331.201904,675.994812 331.827240,677.793945 333.958740,678.066406 
	C337.949768,678.576721 342.126282,678.821106 344.663025,674.804504 
	C351.540619,663.914673 361.897247,656.862061 372.152252,649.739075 
	C385.720764,640.314514 398.933075,630.494690 410.608978,618.718811 
	C425.363556,603.837830 436.083954,586.723022 440.392029,565.974426 
	C441.067688,562.720398 441.456665,559.405762 442.165039,556.159973 
	C442.785980,553.314880 444.205017,551.128784 447.649231,551.680542 
	C450.772308,552.180908 451.636078,554.432007 451.464447,557.187866 
	C451.320374,559.501526 451.065460,561.829834 450.597839,564.097717 
	C449.437073,569.727417 448.126678,575.326233 446.750153,581.504089 
	C468.570374,582.075745 487.165314,591.483032 506.432343,598.695190 
	C520.190735,603.845276 534.196228,607.955811 549.089722,608.256470 
	C552.203918,608.319336 553.972290,607.954590 553.674255,604.419800 
	C553.256836,599.469727 554.869751,594.871094 556.346619,590.283020 
	C557.994019,585.165039 559.090210,580.008545 558.662048,574.589172 
	C558.413330,571.441040 558.533691,568.174438 562.684875,567.885742 
	C566.901611,567.592529 567.932922,570.794250 568.214661,574.147888 
	C568.692627,579.839050 568.336243,585.485596 566.270447,590.886169 
	C562.896667,599.705627 563.445374,608.283813 566.742126,617.110229 
	C575.076416,639.424133 580.097656,662.403015 579.310059,686.408569 
	C579.138672,691.631470 580.756714,696.595215 581.844299,701.620117 
	C586.436768,722.838867 589.238342,744.202148 587.386230,765.973328 
	C586.916504,771.495117 586.618958,776.873657 591.706299,780.946472 
	C593.136475,782.091370 593.818542,784.306580 594.565735,786.143982 
	C597.108215,792.395630 597.895447,792.803467 605.086182,790.859375 
	C604.933411,790.248474 604.911438,789.557922 604.606995,789.030334 
	C593.847717,770.384583 591.453857,749.711975 590.798950,728.851624 
	C590.098877,706.552063 593.942383,684.443848 594.810913,662.167297 
	C595.819031,636.309326 603.009888,611.944275 617.162964,590.043945 
	C623.887207,579.638855 626.516907,568.479797 625.557617,556.331726 
	C624.525818,543.266174 620.437744,531.286499 612.624146,520.639099 
	C611.191589,518.687012 609.117432,516.840149 609.489502,514.071289 
	C609.738464,512.218933 617.499268,506.227631 619.451111,505.947937 
	C623.716431,505.336670 626.091248,507.774536 628.544434,510.807434 
	C634.288330,517.908630 642.920410,518.133606 646.658936,510.587372 
	C650.050232,503.742279 653.150024,496.218750 651.052185,488.029938 
	C650.049011,484.114014 648.898315,479.857605 650.375488,476.227417 
	C651.973694,472.300201 651.300720,468.824463 650.817749,465.074432 
	C649.445679,454.420502 646.105042,444.330200 642.231750,434.381470 
	C637.639221,422.585419 633.079224,410.769196 631.205994,398.155396 
	C629.848022,389.010895 629.474854,379.703766 624.191833,371.492981 
	C622.676392,369.137756 622.632874,365.758148 622.197937,362.806396 
	C621.750183,359.767853 623.050842,357.509735 626.195312,356.893982 
	C629.195312,356.306519 630.851685,358.156952 631.827820,360.711975 
	C632.179932,361.633698 632.266907,362.654419 632.502625,363.623199 
	C634.651855,372.457306 640.228394,378.127533 648.657471,381.217255 
	C656.130127,383.956360 663.754822,383.324768 671.359436,382.199463 
	C681.621216,380.680939 691.850037,379.548187 702.921692,382.532562 
M630.030884,588.459351 
	C628.057678,592.366089 624.644287,595.530396 623.688232,600.145691 
	C627.324951,599.968262 627.339172,599.995300 630.874512,598.136536 
	C646.998413,589.659180 660.012756,577.800781 669.772095,562.386536 
	C682.289062,542.616882 689.193115,521.107178 688.383606,497.652283 
	C687.706726,478.044128 682.323486,459.287842 675.932312,440.827240 
	C670.987549,426.544708 664.523010,412.730164 662.470886,397.541931 
	C662.264709,396.015900 661.664246,394.449371 659.903931,394.232483 
	C653.841736,393.485657 647.958557,391.819000 642.068420,390.282471 
	C640.340881,393.735596 641.245972,396.674194 641.776489,399.552948 
	C643.412842,408.432343 646.287964,416.946045 649.779846,425.244659 
	C661.405823,452.874329 665.848206,481.335419 660.388855,511.108887 
	C655.339539,538.646118 644.940613,564.032532 630.030884,588.459351 
M412.959137,673.324036 
	C414.101379,676.492737 415.964508,679.259460 417.824493,682.025940 
	C423.401978,690.321594 429.158508,698.502747 434.531738,706.928467 
	C444.791351,723.016602 453.435211,739.864075 457.156525,758.807129 
	C457.690643,761.525818 459.025269,763.316711 461.296875,764.670532 
	C464.036346,766.303162 466.885406,768.048584 468.085938,771.100037 
	C470.345520,776.843384 474.500336,776.146729 479.142181,775.125732 
	C479.195740,773.180664 478.089325,772.072876 477.341644,770.832764 
	C470.975891,760.274109 464.443848,749.812439 458.250671,739.153748 
	C448.531067,722.425964 439.645111,705.311157 434.355530,686.536499 
	C430.915619,674.326965 433.698059,663.849854 442.347565,654.816589 
	C446.956726,650.002991 451.783295,645.398071 456.420135,640.610291 
	C466.620056,630.078186 474.973145,618.341492 479.504913,604.222046 
	C480.161957,602.174866 481.545532,599.721375 478.115631,598.401001 
	C467.803772,594.431396 457.285217,591.494934 446.130676,591.308228 
	C443.680206,591.267151 442.053711,592.071411 440.981323,594.355774 
	C437.490356,601.792114 432.861053,608.507141 427.583008,614.774353 
	C425.871490,616.806641 425.055664,618.998901 425.388855,621.659790 
	C427.170288,635.887329 423.421448,648.687744 415.267975,660.308472 
	C412.636139,664.059570 411.551819,668.075317 412.959137,673.324036 
M644.020874,725.551025 
	C648.228027,722.959534 651.440979,719.376831 654.018066,715.232788 
	C656.919373,710.567261 659.713135,705.833374 662.486816,701.090149 
	C669.986633,688.264954 678.908630,676.425110 687.641541,664.444763 
	C692.694885,657.512207 693.112183,651.503479 688.671265,645.523621 
	C677.338501,630.263672 666.500854,614.695251 657.385864,597.988342 
	C655.868286,595.206848 654.224548,595.085876 651.846741,596.957825 
	C645.669678,601.820984 638.811951,605.602478 631.858093,609.215027 
	C630.982544,609.669861 630.008667,610.036011 629.681213,611.492676 
	C630.274536,613.091248 631.949463,613.969299 633.317078,615.105103 
	C644.351868,624.269531 656.499268,631.928162 667.886230,640.608521 
	C676.910645,647.487854 680.047058,655.904053 676.147644,666.150879 
	C669.535034,683.527222 660.835510,699.764404 645.616394,711.458679 
	C644.395935,712.396606 643.368896,713.468140 642.772339,714.870667 
	C641.661316,717.482483 639.665466,719.305969 637.189270,720.345398 
	C632.080872,722.489563 631.842712,726.280640 632.859497,731.017517 
	C633.837036,730.800537 634.538330,730.791077 635.088623,730.498108 
	C637.879822,729.011902 640.631836,727.452209 644.020874,725.551025 
M340.696289,512.303711 
	C341.292938,509.570557 341.889587,506.837433 342.481201,504.127319 
	C339.682800,503.186920 331.041962,507.834320 329.395905,511.670074 
	C327.088989,517.045898 331.376862,520.008118 334.225616,523.397095 
	C339.218597,521.452148 339.555664,517.064697 340.696289,512.303711 
z"/>
<path fill="#000000" opacity="1.000000" stroke="none" 
	d="
M680.762390,353.176117 
	C668.893127,355.602234 658.055603,354.527710 649.782593,344.740509 
	C647.336243,341.846344 650.126160,340.583374 652.004272,339.471588 
	C657.967041,335.941895 668.805603,337.223114 674.014771,342.091736 
	C677.187317,345.056976 679.687561,348.553406 680.762390,353.176117 
z"/>
</svg>